# Blender 3.4.1
# www.blender.org
o Torus
v 200.000000 0.000000 0.000000
v 200.000000 0.000000 0.000000
v 200.000000 0.000000 0.000000
v 200.000000 0.000000 0.000000
v 200.000000 0.000000 0.000000
v 200.000000 0.000000 0.000000
v 200.000000 0.000000 0.000000
v 200.000000 0.000000 0.000000
v 200.000000 0.000000 0.000000
v 200.000000 0.000000 0.000000
v 200.000000 0.000000 0.000000
v 200.000000 0.000000 0.000000
v -82.842789 282.842651 0.000000
v -80.125427 280.125275 39.018063
v -72.077728 272.077606 76.536690
v -59.008961 259.008820 111.114044
v -41.421413 241.421295 141.421356
v -19.990902 219.990784 166.293930
v 4.458981 195.540924 184.775909
v 30.988674 169.011246 196.157059
v 58.578606 141.421326 200.000000
v 86.168549 113.831398 196.157059
v 112.698227 87.301720 184.775909
v 137.148117 62.851845 166.293930
v 158.578629 41.421349 141.421356
v 176.166199 23.833790 111.114044
v 189.234940 10.765057 76.536690
v 197.282623 2.717371 39.018063
v 200.000000 0.000000 0.000000
v 197.282623 2.717371 -39.018063
v 189.234940 10.765057 -76.536690
v 176.166199 23.833790 -111.114044
v 158.578629 41.421349 -141.421356
v 137.148117 62.851845 -166.293930
v 112.698227 87.301720 -184.775909
v 86.168549 113.831398 -196.157059
v 58.578606 141.421326 -200.000000
v 30.988674 169.011246 -196.157059
v 4.458981 195.540924 -184.775909
v -19.990902 219.990784 -166.293930
v -41.421413 241.421295 -141.421356
v -59.008961 259.008820 -111.114044
v -72.077728 272.077606 -76.536690
v -80.125427 280.125275 -39.018063
v -132.587814 222.228149 0.000000
v -129.392548 220.093140 39.018063
v -119.929466 213.770111 76.536690
v -104.562225 203.502045 111.114044
v -83.881454 189.683594 141.421356
v -58.681850 172.845749 166.293930
v -29.931831 153.635590 184.775909
v 1.263771 132.791351 196.157059
v 33.706093 111.114075 200.000000
v 66.148422 89.436798 196.157059
v 97.344017 68.592560 184.775909
v 126.094040 49.382401 166.293930
v 151.293640 32.544559 141.421356
v 171.974426 18.726099 111.114044
v 187.341629 8.458055 76.536690
v 196.804718 2.135026 39.018063
v 200.000000 0.000000 0.000000
v 196.804718 2.135026 -39.018063
v 187.341629 8.458055 -76.536690
v 171.974426 18.726099 -111.114044
v 151.293640 32.544559 -141.421356
v 126.094040 49.382401 -166.293930
v 97.344017 68.592560 -184.775909
v 66.148422 89.436798 -196.157059
v 33.706093 111.114075 -200.000000
v 1.263771 132.791351 -196.157059
v -29.931831 153.635590 -184.775909
v -58.681850 172.845749 -166.293930
v -83.881454 189.683594 -141.421356
v -104.562225 203.502045 -111.114044
v -119.929466 213.770111 -76.536690
v -129.392548 220.093140 -39.018063
v -169.551819 153.073395 0.000000
v -166.001404 151.602768 39.018063
v -155.486603 147.247391 76.536690
v -138.411438 140.174622 111.114044
v -115.432190 130.656311 141.421356
v -87.431885 119.058212 166.293930
v -55.486584 105.826027 184.775909
v -20.823879 91.468269 196.157059
v 15.224094 76.536697 200.000000
v 51.272087 61.605129 196.157059
v 85.934769 47.247372 184.775909
v 117.880089 34.015190 166.293930
v 145.880402 22.417080 141.421356
v 168.859634 12.898760 111.114044
v 185.934769 5.826009 76.536690
v 196.449585 1.470631 39.018063
v 200.000000 0.000000 0.000000
v 196.449585 1.470631 -39.018063
v 185.934769 5.826009 -76.536690
v 168.859634 12.898760 -111.114044
v 145.880402 22.417080 -141.421356
v 117.880089 34.015190 -166.293930
v 85.934769 47.247372 -184.775909
v 51.272087 61.605129 -196.157059
v 15.224094 76.536697 -200.000000
v -20.823879 91.468269 -196.157059
v -55.486584 105.826027 -184.775909
v -87.431885 119.058212 -166.293930
v -115.432190 130.656311 -141.421356
v -138.411438 140.174622 -111.114044
v -155.486603 147.247391 -76.536690
v -166.001404 151.602768 -39.018063
v -192.314117 78.036125 0.000000
v -188.545044 77.286407 39.018063
v -177.382584 75.066055 76.536690
v -159.255676 71.460388 111.114044
v -134.861069 66.608002 141.421356
v -105.136093 60.695335 166.293930
v -71.223129 53.949627 184.775909
v -34.425392 46.630104 196.157059
v 3.842945 39.018063 200.000000
v 42.111275 31.406017 196.157059
v 78.908997 24.086496 184.775909
v 112.821960 17.340790 166.293930
v 142.546921 11.428126 141.421356
v 166.941559 6.575729 111.114044
v 185.068436 2.970073 76.536690
v 196.230896 0.749721 39.018063
v 200.000000 0.000000 0.000000
v 196.230896 0.749721 -39.018063
v 185.068436 2.970073 -76.536690
v 166.941559 6.575729 -111.114044
v 142.546921 11.428126 -141.421356
v 112.821960 17.340790 -166.293930
v 78.908997 24.086496 -184.775909
v 42.111275 31.406017 -196.157059
v 3.842945 39.018063 -200.000000
v -34.425392 46.630104 -196.157059
v -71.223129 53.949627 -184.775909
v -105.136093 60.695335 -166.293930
v -134.861069 66.608002 -141.421356
v -159.255676 71.460388 -111.114044
v -177.382584 75.066055 -76.536690
v -188.545044 77.286407 -39.018063
v -200.000000 0.000035 0.000000
v -196.157074 0.000035 39.018063
v -184.775925 0.000034 76.536690
v -166.293915 0.000032 111.114044
v -141.421356 0.000030 141.421356
v -111.114044 0.000027 166.293930
v -76.536697 0.000024 184.775909
v -39.018059 0.000021 196.157059
v 0.000000 0.000017 200.000000
v 39.018059 0.000014 196.157059
v 76.536682 0.000011 184.775909
v 111.114044 0.000008 166.293930
v 141.421356 0.000005 141.421356
v 166.293930 0.000003 111.114044
v 184.775909 0.000001 76.536690
v 196.157059 0.000000 39.018063
v 200.000000 0.000000 0.000000
v 196.157059 0.000000 -39.018063
v 184.775909 0.000001 -76.536690
v 166.293930 0.000003 -111.114044
v 141.421356 0.000005 -141.421356
v 111.114044 0.000008 -166.293930
v 76.536682 0.000011 -184.775909
v 39.018059 0.000014 -196.157059
v 0.000000 0.000017 -200.000000
v -39.018059 0.000021 -196.157059
v -76.536697 0.000024 -184.775909
v -111.114044 0.000027 -166.293930
v -141.421356 0.000030 -141.421356
v -166.293915 0.000032 -111.114044
v -184.775925 0.000034 -76.536690
v -196.157074 0.000035 -39.018063
v 200.000000 0.000000 0.000000
v 200.000000 0.000000 0.000000
v 200.000000 0.000000 0.000000
v 200.000000 0.000000 0.000000
v 200.000000 0.000000 0.000000
v 200.000000 0.000000 0.000000
v 200.000000 0.000000 0.000000
v 200.000000 0.000000 0.000000
v 200.000000 0.000000 0.000000
v 200.000000 0.000000 0.000000
v 200.000000 0.000000 0.000000
v 200.000000 0.000000 0.000000
v 200.000000 0.000000 0.000000
v 200.000000 0.000000 0.000000
v 200.000000 0.000000 0.000000
vn -0.7693 0.6314 0.0975
vn -0.7400 0.6073 0.2890
vn -0.6825 0.5601 0.4696
vn -0.5987 0.4913 0.6326
vn -0.4918 0.4036 0.7715
vn -0.3658 0.3002 0.8810
vn -0.2254 0.1850 0.9565
vn -0.0761 0.0625 0.9951
vn 0.0761 -0.0625 0.9951
vn 0.2254 -0.1850 0.9565
vn 0.3658 -0.3002 0.8810
vn 0.4918 -0.4036 0.7715
vn 0.5987 -0.4913 0.6326
vn 0.6825 -0.5601 0.4696
vn 0.7400 -0.6073 0.2890
vn 0.7693 -0.6314 0.0975
vn 0.7693 -0.6314 -0.0975
vn 0.7400 -0.6073 -0.2890
vn 0.6825 -0.5601 -0.4696
vn 0.5987 -0.4913 -0.6326
vn 0.4918 -0.4036 -0.7715
vn 0.3658 -0.3002 -0.8810
vn 0.2254 -0.1850 -0.9565
vn 0.0761 -0.0625 -0.9951
vn -0.0761 0.0625 -0.9951
vn -0.2254 0.1850 -0.9565
vn -0.3658 0.3002 -0.8810
vn -0.4918 0.4036 -0.7715
vn -0.5987 0.4913 -0.6326
vn -0.6825 0.5601 -0.4696
vn -0.7400 0.6073 -0.2890
vn -0.7693 0.6314 -0.0975
vn -0.8777 0.4691 0.0975
vn -0.8443 0.4513 0.2890
vn -0.7786 0.4162 0.4696
vn -0.6831 0.3651 0.6326
vn -0.5611 0.2999 0.7715
vn -0.4173 0.2230 0.8810
vn -0.2571 0.1374 0.9565
vn -0.0869 0.0464 0.9951
vn 0.0869 -0.0464 0.9951
vn 0.2571 -0.1374 0.9565
vn 0.4173 -0.2231 0.8810
vn 0.5611 -0.2999 0.7715
vn 0.6831 -0.3651 0.6326
vn 0.7786 -0.4162 0.4696
vn 0.8443 -0.4513 0.2890
vn 0.8777 -0.4691 0.0975
vn 0.8777 -0.4691 -0.0975
vn 0.8443 -0.4513 -0.2890
vn 0.7786 -0.4162 -0.4696
vn 0.6831 -0.3651 -0.6326
vn 0.5611 -0.2999 -0.7715
vn 0.4173 -0.2231 -0.8810
vn 0.2571 -0.1374 -0.9565
vn 0.0869 -0.0464 -0.9951
vn -0.0869 0.0464 -0.9951
vn -0.2571 0.1374 -0.9565
vn -0.4173 0.2230 -0.8810
vn -0.5611 0.2999 -0.7715
vn -0.6831 0.3651 -0.6326
vn -0.7786 0.4162 -0.4696
vn -0.8443 0.4513 -0.2890
vn -0.8777 0.4691 -0.0975
vn -0.9524 0.2889 0.0975
vn -0.9161 0.2779 0.2890
vn -0.8448 0.2563 0.4696
vn -0.7412 0.2248 0.6326
vn -0.6088 0.1847 0.7715
vn -0.4528 0.1374 0.8810
vn -0.2790 0.0846 0.9565
vn -0.0942 0.0286 0.9951
vn 0.0942 -0.0286 0.9951
vn 0.2790 -0.0846 0.9565
vn 0.4528 -0.1374 0.8810
vn 0.6088 -0.1847 0.7715
vn 0.7412 -0.2248 0.6326
vn 0.8448 -0.2563 0.4696
vn 0.9161 -0.2779 0.2890
vn 0.9524 -0.2889 0.0975
vn 0.9524 -0.2889 -0.0975
vn 0.9161 -0.2779 -0.2890
vn 0.8448 -0.2563 -0.4696
vn 0.7412 -0.2248 -0.6326
vn 0.6088 -0.1847 -0.7715
vn 0.4528 -0.1374 -0.8810
vn 0.2790 -0.0846 -0.9565
vn 0.0942 -0.0286 -0.9951
vn -0.0942 0.0286 -0.9951
vn -0.2790 0.0846 -0.9565
vn -0.4528 0.1374 -0.8810
vn -0.6088 0.1847 -0.7715
vn -0.7412 0.2248 -0.6326
vn -0.8448 0.2563 -0.4696
vn -0.9161 0.2779 -0.2890
vn -0.9524 0.2889 -0.0975
vn -0.9904 0.0975 0.0975
vn -0.9527 0.0938 0.2890
vn -0.8786 0.0865 0.4696
vn -0.7708 0.0759 0.6326
vn -0.6332 0.0624 0.7715
vn -0.4709 0.0464 0.8810
vn -0.2902 0.0286 0.9565
vn -0.0980 0.0097 0.9951
vn 0.0980 -0.0097 0.9951
vn 0.2902 -0.0286 0.9565
vn 0.4709 -0.0464 0.8810
vn 0.6332 -0.0624 0.7715
vn 0.7708 -0.0759 0.6326
vn 0.8786 -0.0865 0.4696
vn 0.9527 -0.0938 0.2890
vn 0.9904 -0.0975 0.0975
vn 0.9904 -0.0975 -0.0975
vn 0.9527 -0.0938 -0.2890
vn 0.8786 -0.0865 -0.4696
vn 0.7708 -0.0759 -0.6326
vn 0.6332 -0.0624 -0.7715
vn 0.4709 -0.0464 -0.8810
vn 0.2902 -0.0286 -0.9565
vn 0.0980 -0.0097 -0.9951
vn -0.0980 0.0097 -0.9951
vn -0.2902 0.0286 -0.9565
vn -0.4709 0.0464 -0.8810
vn -0.6332 0.0624 -0.7715
vn -0.7708 0.0759 -0.6326
vn -0.8786 0.0865 -0.4696
vn -0.9527 0.0938 -0.2890
vn -0.9904 0.0975 -0.0975
vt 0.875000 0.500000
vt 0.875000 0.531250
vt 0.875000 0.562500
vt 0.875000 0.593750
vt 0.875000 0.625000
vt 0.875000 0.656250
vt 0.875000 0.687500
vt 0.875000 0.718750
vt 0.875000 0.750000
vt 0.875000 0.781250
vt 0.875000 0.812500
vt 0.875000 0.843750
vt 0.875000 0.875000
vt 0.875000 0.906250
vt 0.875000 0.937500
vt 0.875000 0.968750
vt 0.875000 1.000000
vt 0.875000 0.000000
vt 0.875000 0.031250
vt 0.875000 0.062500
vt 0.875000 0.093750
vt 0.875000 0.125000
vt 0.875000 0.156250
vt 0.875000 0.187500
vt 0.875000 0.218750
vt 0.875000 0.250000
vt 0.875000 0.281250
vt 0.875000 0.312500
vt 0.875000 0.343750
vt 0.875000 0.375000
vt 0.875000 0.406250
vt 0.875000 0.437500
vt 0.875000 0.468750
vt 0.906250 0.500000
vt 0.906250 0.531250
vt 0.906250 0.562500
vt 0.906250 0.593750
vt 0.906250 0.625000
vt 0.906250 0.656250
vt 0.906250 0.687500
vt 0.906250 0.718750
vt 0.906250 0.750000
vt 0.906250 0.781250
vt 0.906250 0.812500
vt 0.906250 0.843750
vt 0.906250 0.875000
vt 0.906250 0.906250
vt 0.906250 0.937500
vt 0.906250 0.968750
vt 0.906250 1.000000
vt 0.906250 0.000000
vt 0.906250 0.031250
vt 0.906250 0.062500
vt 0.906250 0.093750
vt 0.906250 0.125000
vt 0.906250 0.156250
vt 0.906250 0.187500
vt 0.906250 0.218750
vt 0.906250 0.250000
vt 0.906250 0.281250
vt 0.906250 0.312500
vt 0.906250 0.343750
vt 0.906250 0.375000
vt 0.906250 0.406250
vt 0.906250 0.437500
vt 0.906250 0.468750
vt 0.937500 0.500000
vt 0.937500 0.531250
vt 0.937500 0.562500
vt 0.937500 0.593750
vt 0.937500 0.625000
vt 0.937500 0.656250
vt 0.937500 0.687500
vt 0.937500 0.718750
vt 0.937500 0.750000
vt 0.937500 0.781250
vt 0.937500 0.812500
vt 0.937500 0.843750
vt 0.937500 0.875000
vt 0.937500 0.906250
vt 0.937500 0.937500
vt 0.937500 0.968750
vt 0.937500 1.000000
vt 0.937500 0.000000
vt 0.937500 0.031250
vt 0.937500 0.062500
vt 0.937500 0.093750
vt 0.937500 0.125000
vt 0.937500 0.156250
vt 0.937500 0.187500
vt 0.937500 0.218750
vt 0.937500 0.250000
vt 0.937500 0.281250
vt 0.937500 0.312500
vt 0.937500 0.343750
vt 0.937500 0.375000
vt 0.937500 0.406250
vt 0.937500 0.437500
vt 0.937500 0.468750
vt 0.968750 0.500000
vt 0.968750 0.531250
vt 0.968750 0.562500
vt 0.968750 0.593750
vt 0.968750 0.625000
vt 0.968750 0.656250
vt 0.968750 0.687500
vt 0.968750 0.718750
vt 0.968750 0.750000
vt 0.968750 0.781250
vt 0.968750 0.812500
vt 0.968750 0.843750
vt 0.968750 0.875000
vt 0.968750 0.906250
vt 0.968750 0.937500
vt 0.968750 0.968750
vt 0.968750 1.000000
vt 0.968750 0.000000
vt 0.968750 0.031250
vt 0.968750 0.062500
vt 0.968750 0.093750
vt 0.968750 0.125000
vt 0.968750 0.156250
vt 0.968750 0.187500
vt 0.968750 0.218750
vt 0.968750 0.250000
vt 0.968750 0.281250
vt 0.968750 0.312500
vt 0.968750 0.343750
vt 0.968750 0.375000
vt 0.968750 0.406250
vt 0.968750 0.437500
vt 0.968750 0.468750
vt 1.000000 0.500000
vt 1.000000 0.531250
vt 1.000000 0.562500
vt 1.000000 0.593750
vt 1.000000 0.625000
vt 1.000000 0.656250
vt 1.000000 0.687500
vt 1.000000 0.718750
vt 1.000000 0.750000
vt 1.000000 0.781250
vt 1.000000 0.812500
vt 1.000000 0.843750
vt 1.000000 0.875000
vt 1.000000 0.906250
vt 1.000000 0.937500
vt 1.000000 0.968750
vt 1.000000 1.000000
vt 1.000000 0.000000
vt 1.000000 0.031250
vt 1.000000 0.062500
vt 1.000000 0.093750
vt 1.000000 0.125000
vt 1.000000 0.156250
vt 1.000000 0.187500
vt 1.000000 0.218750
vt 1.000000 0.250000
vt 1.000000 0.281250
vt 1.000000 0.312500
vt 1.000000 0.343750
vt 1.000000 0.375000
vt 1.000000 0.406250
vt 1.000000 0.437500
vt 1.000000 0.468750
s 0
f 13/1/1 45/34/1 46/35/1 14/2/1
f 14/2/2 46/35/2 47/36/2 15/3/2
f 15/3/3 47/36/3 48/37/3 16/4/3
f 16/4/4 48/37/4 49/38/4 17/5/4
f 17/5/5 49/38/5 50/39/5 18/6/5
f 18/6/6 50/39/6 51/40/6 19/7/6
f 19/7/7 51/40/7 52/41/7 20/8/7
f 20/8/8 52/41/8 53/42/8 21/9/8
f 21/9/9 53/42/9 54/43/9 22/10/9
f 22/10/10 54/43/10 55/44/10 23/11/10
f 23/11/11 55/44/11 56/45/11 24/12/11
f 24/12/12 56/45/12 57/46/12 25/13/12
f 25/13/13 57/46/13 58/47/13 26/14/13
f 26/14/14 58/47/14 59/48/14 27/15/14
f 27/15/15 59/48/15 60/49/15 28/16/15
f 28/16/16 60/49/16 61/50/16 29/17/16
f 29/18/17 61/51/17 62/52/17 30/19/17
f 30/19/18 62/52/18 63/53/18 31/20/18
f 31/20/19 63/53/19 64/54/19 32/21/19
f 32/21/20 64/54/20 65/55/20 33/22/20
f 33/22/21 65/55/21 66/56/21 34/23/21
f 34/23/22 66/56/22 67/57/22 35/24/22
f 35/24/23 67/57/23 68/58/23 36/25/23
f 36/25/24 68/58/24 69/59/24 37/26/24
f 37/26/25 69/59/25 70/60/25 38/27/25
f 38/27/26 70/60/26 71/61/26 39/28/26
f 39/28/27 71/61/27 72/62/27 40/29/27
f 40/29/28 72/62/28 73/63/28 41/30/28
f 41/30/29 73/63/29 74/64/29 42/31/29
f 42/31/30 74/64/30 75/65/30 43/32/30
f 43/32/31 75/65/31 76/66/31 44/33/31
f 44/33/32 76/66/32 45/34/32 13/1/32
f 45/34/33 77/67/33 78/68/33 46/35/33
f 46/35/34 78/68/34 79/69/34 47/36/34
f 47/36/35 79/69/35 80/70/35 48/37/35
f 48/37/36 80/70/36 81/71/36 49/38/36
f 49/38/37 81/71/37 82/72/37 50/39/37
f 50/39/38 82/72/38 83/73/38 51/40/38
f 51/40/39 83/73/39 84/74/39 52/41/39
f 52/41/40 84/74/40 85/75/40 53/42/40
f 53/42/41 85/75/41 86/76/41 54/43/41
f 54/43/42 86/76/42 87/77/42 55/44/42
f 55/44/43 87/77/43 88/78/43 56/45/43
f 56/45/44 88/78/44 89/79/44 57/46/44
f 57/46/45 89/79/45 90/80/45 58/47/45
f 58/47/46 90/80/46 91/81/46 59/48/46
f 59/48/47 91/81/47 92/82/47 60/49/47
f 60/49/48 92/82/48 93/83/48 61/50/48
f 61/51/49 93/84/49 94/85/49 62/52/49
f 62/52/50 94/85/50 95/86/50 63/53/50
f 63/53/51 95/86/51 96/87/51 64/54/51
f 64/54/52 96/87/52 97/88/52 65/55/52
f 65/55/53 97/88/53 98/89/53 66/56/53
f 66/56/54 98/89/54 99/90/54 67/57/54
f 67/57/55 99/90/55 100/91/55 68/58/55
f 68/58/56 100/91/56 101/92/56 69/59/56
f 69/59/57 101/92/57 102/93/57 70/60/57
f 70/60/58 102/93/58 103/94/58 71/61/58
f 71/61/59 103/94/59 104/95/59 72/62/59
f 72/62/60 104/95/60 105/96/60 73/63/60
f 73/63/61 105/96/61 106/97/61 74/64/61
f 74/64/62 106/97/62 107/98/62 75/65/62
f 75/65/63 107/98/63 108/99/63 76/66/63
f 76/66/64 108/99/64 77/67/64 45/34/64
f 77/67/65 109/100/65 110/101/65 78/68/65
f 78/68/66 110/101/66 111/102/66 79/69/66
f 79/69/67 111/102/67 112/103/67 80/70/67
f 80/70/68 112/103/68 113/104/68 81/71/68
f 81/71/69 113/104/69 114/105/69 82/72/69
f 82/72/70 114/105/70 115/106/70 83/73/70
f 83/73/71 115/106/71 116/107/71 84/74/71
f 84/74/72 116/107/72 117/108/72 85/75/72
f 85/75/73 117/108/73 118/109/73 86/76/73
f 86/76/74 118/109/74 119/110/74 87/77/74
f 87/77/75 119/110/75 120/111/75 88/78/75
f 88/78/76 120/111/76 121/112/76 89/79/76
f 89/79/77 121/112/77 122/113/77 90/80/77
f 90/80/78 122/113/78 123/114/78 91/81/78
f 91/81/79 123/114/79 124/115/79 92/82/79
f 92/82/80 124/115/80 125/116/80 93/83/80
f 93/84/81 125/117/81 126/118/81 94/85/81
f 94/85/82 126/118/82 127/119/82 95/86/82
f 95/86/83 127/119/83 128/120/83 96/87/83
f 96/87/84 128/120/84 129/121/84 97/88/84
f 97/88/85 129/121/85 130/122/85 98/89/85
f 98/89/86 130/122/86 131/123/86 99/90/86
f 99/90/87 131/123/87 132/124/87 100/91/87
f 100/91/88 132/124/88 133/125/88 101/92/88
f 101/92/89 133/125/89 134/126/89 102/93/89
f 102/93/90 134/126/90 135/127/90 103/94/90
f 103/94/91 135/127/91 136/128/91 104/95/91
f 104/95/92 136/128/92 137/129/92 105/96/92
f 105/96/93 137/129/93 138/130/93 106/97/93
f 106/97/94 138/130/94 139/131/94 107/98/94
f 107/98/95 139/131/95 140/132/95 108/99/95
f 108/99/96 140/132/96 109/100/96 77/67/96
f 109/100/97 141/133/97 142/134/97 110/101/97
f 110/101/98 142/134/98 143/135/98 111/102/98
f 111/102/99 143/135/99 144/136/99 112/103/99
f 112/103/100 144/136/100 145/137/100 113/104/100
f 113/104/101 145/137/101 146/138/101 114/105/101
f 114/105/102 146/138/102 147/139/102 115/106/102
f 115/106/103 147/139/103 148/140/103 116/107/103
f 116/107/104 148/140/104 149/141/104 117/108/104
f 117/108/105 149/141/105 150/142/105 118/109/105
f 118/109/106 150/142/106 151/143/106 119/110/106
f 119/110/107 151/143/107 152/144/107 120/111/107
f 120/111/108 152/144/108 153/145/108 121/112/108
f 121/112/109 153/145/109 154/146/109 122/113/109
f 122/113/110 154/146/110 155/147/110 123/114/110
f 123/114/111 155/147/111 156/148/111 124/115/111
f 124/115/112 156/148/112 157/149/112 125/116/112
f 125/117/113 157/150/113 158/151/113 126/118/113
f 126/118/114 158/151/114 159/152/114 127/119/114
f 127/119/115 159/152/115 160/153/115 128/120/115
f 128/120/116 160/153/116 161/154/116 129/121/116
f 129/121/117 161/154/117 162/155/117 130/122/117
f 130/122/118 162/155/118 163/156/118 131/123/118
f 131/123/119 163/156/119 164/157/119 132/124/119
f 132/124/120 164/157/120 165/158/120 133/125/120
f 133/125/121 165/158/121 166/159/121 134/126/121
f 134/126/122 166/159/122 167/160/122 135/127/122
f 135/127/123 167/160/123 168/161/123 136/128/123
f 136/128/124 168/161/124 169/162/124 137/129/124
f 137/129/125 169/162/125 170/163/125 138/130/125
f 138/130/126 170/163/126 171/164/126 139/131/126
f 139/131/127 171/164/127 172/165/127 140/132/127
f 140/132/128 172/165/128 141/133/128 109/100/128
l 1 2
l 5 6
l 9 10
l 157 173
l 173 174
l 177 178
l 181 182
l 185 186
l 1 187
l 2 3
l 6 7
l 10 11
l 174 175
l 178 179
l 182 183
l 186 187
l 3 4
l 7 8
l 11 12
l 175 176
l 179 180
l 183 184
l 4 5
l 8 9
l 12 29
l 176 177
l 180 181
l 184 185
