# Blender 3.4.1
# www.blender.org
o Torus.001
v -31.586494 406.586304 0.000000
v -28.869133 403.868958 39.018063
v -20.821457 395.821228 76.536690
v -7.752686 382.752502 111.114044
v 9.834862 365.164948 141.421356
v 31.265373 343.734436 166.293930
v 55.715275 319.284546 184.775909
v 82.244949 292.754883 196.157059
v 109.834900 265.164978 200.000000
v 137.424835 237.575058 196.157059
v 163.954529 211.045380 184.775909
v 188.404404 186.595490 166.293930
v 209.834915 165.165009 141.421356
v 227.422485 147.577438 111.114044
v 240.491211 134.508713 76.536690
v 248.538910 126.461029 39.018063
v 251.256287 123.743652 0.000000
v 248.538910 126.461029 -39.018063
v 240.491211 134.508713 -76.536690
v 227.422485 147.577438 -111.114044
v 209.834915 165.165009 -141.421356
v 188.404404 186.595490 -166.293930
v 163.954529 211.045380 -184.775909
v 137.424835 237.575058 -196.157059
v 109.834900 265.164978 -200.000000
v 82.244949 292.754883 -196.157059
v 55.715275 319.284546 -184.775909
v 31.265373 343.734436 -166.293930
v 9.834862 365.164948 -141.421356
v -7.752686 382.752502 -111.114044
v -20.821457 395.821228 -76.536690
v -28.869133 403.868958 -39.018063
v -103.094978 319.452942 0.000000
v -99.899712 317.317932 39.018063
v -90.436630 310.994904 76.536690
v -75.069389 300.726868 111.114044
v -54.388618 286.908386 141.421356
v -29.189034 270.070557 166.293930
v -0.438995 250.860382 184.775909
v 30.756607 230.016159 196.157059
v 63.198929 208.338898 200.000000
v 95.641251 186.661606 196.157059
v 126.836853 165.817383 184.775909
v 155.586868 146.607224 166.293930
v 180.786469 129.769379 141.421356
v 201.467270 115.950912 111.114044
v 216.834442 105.682869 76.536690
v 226.297531 99.359833 39.018063
v 229.492828 97.224815 0.000000
v 226.297531 99.359833 -39.018063
v 216.834442 105.682869 -76.536690
v 201.467270 115.950912 -111.114044
v 180.786469 129.769379 -141.421356
v 155.586868 146.607224 -166.293930
v 126.836853 165.817383 -184.775909
v 95.641251 186.661606 -196.157059
v 63.198929 208.338898 -200.000000
v 30.756607 230.016159 -196.157059
v -0.438995 250.860382 -184.775909
v -29.189034 270.070557 -166.293930
v -54.388618 286.908386 -141.421356
v -75.069389 300.726868 -111.114044
v -90.436630 310.994904 -76.536690
v -99.899712 317.317932 -39.018063
v -156.230698 220.043015 0.000000
v -152.680328 218.572388 39.018063
v -142.165497 214.216995 76.536690
v -125.090332 207.144241 111.114044
v -102.111092 197.625916 141.421356
v -74.110794 186.027817 166.293930
v -42.165489 172.795624 184.775909
v -7.502785 158.437866 196.157059
v 28.545189 143.506302 200.000000
v 64.593163 128.574738 196.157059
v 99.255867 114.216980 184.775909
v 131.201172 100.984795 166.293930
v 159.201477 89.386688 141.421356
v 182.180725 79.868370 111.114044
v 199.255859 72.795624 76.536690
v 209.770660 68.440239 39.018063
v 213.321091 66.969612 0.000000
v 209.770660 68.440239 -39.018063
v 199.255859 72.795624 -76.536690
v 182.180725 79.868370 -111.114044
v 159.201477 89.386688 -141.421356
v 131.201172 100.984795 -166.293930
v 99.255867 114.216980 -184.775909
v 64.593163 128.574738 -196.157059
v 28.545189 143.506302 -200.000000
v -7.502785 158.437866 -196.157059
v -42.165489 172.795624 -184.775909
v -74.110794 186.027817 -166.293930
v -102.111092 197.625916 -141.421356
v -125.090332 207.144241 -111.114044
v -142.165497 214.216995 -76.536690
v -152.680328 218.572388 -39.018063
v -188.951569 112.176926 0.000000
v -185.182465 111.427216 39.018063
v -174.020004 109.206856 76.536690
v -155.893097 105.601196 111.114044
v -131.498489 100.748810 141.421356
v -101.773529 94.836136 166.293930
v -67.860527 88.090431 184.775909
v -31.062813 80.770912 196.157059
v 7.205505 73.158867 200.000000
v 45.473862 65.546822 196.157059
v 82.271576 58.227303 184.775909
v 116.184540 51.481590 166.293930
v 145.909500 45.568928 141.421356
v 170.304138 40.716534 111.114044
v 188.431000 37.110878 76.536690
v 199.593475 34.890526 39.018063
v 203.362579 34.140804 0.000000
v 199.593475 34.890526 -39.018063
v 188.431000 37.110878 -76.536690
v 170.304138 40.716534 -111.114044
v 145.909500 45.568928 -141.421356
v 116.184540 51.481590 -166.293930
v 82.271576 58.227303 -184.775909
v 45.473862 65.546822 -196.157059
v 7.205505 73.158867 -200.000000
v -31.062813 80.770912 -196.157059
v -67.860527 88.090431 -184.775909
v -101.773529 94.836136 -166.293930
v -131.498489 100.748810 -141.421356
v -155.893097 105.601196 -111.114044
v -174.020004 109.206856 -76.536690
v -185.182465 111.427216 -39.018063
v -200.000000 0.000050 0.000000
v -196.157074 0.000050 39.018063
v -184.775925 0.000049 76.536690
v -166.293915 0.000047 111.114044
v -141.421356 0.000045 141.421356
v -111.114044 0.000042 166.293930
v -76.536674 0.000039 184.775909
v -39.018059 0.000036 196.157059
v 0.000000 0.000033 200.000000
v 39.018059 0.000029 196.157059
v 76.536697 0.000026 184.775909
v 111.114044 0.000023 166.293930
v 141.421356 0.000020 141.421356
v 166.293930 0.000018 111.114044
v 184.775909 0.000017 76.536690
v 196.157059 0.000016 39.018063
v 200.000000 0.000015 0.000000
v 196.157059 0.000016 -39.018063
v 184.775909 0.000017 -76.536690
v 166.293930 0.000018 -111.114044
v 141.421356 0.000020 -141.421356
v 111.114044 0.000023 -166.293930
v 76.536697 0.000026 -184.775909
v 39.018059 0.000029 -196.157059
v 0.000000 0.000033 -200.000000
v -39.018059 0.000036 -196.157059
v -76.536674 0.000039 -184.775909
v -111.114044 0.000042 -166.293930
v -141.421356 0.000045 -141.421356
v -166.293915 0.000047 -111.114044
v -184.775925 0.000049 -76.536690
v -196.157074 0.000050 -39.018063
vn -0.7693 0.6314 0.0975
vn -0.7400 0.6073 0.2890
vn -0.6825 0.5601 0.4696
vn -0.5987 0.4913 0.6326
vn -0.4918 0.4036 0.7715
vn -0.3658 0.3002 0.8810
vn -0.2254 0.1850 0.9565
vn -0.0761 0.0625 0.9951
vn 0.0761 -0.0625 0.9951
vn 0.2254 -0.1850 0.9565
vn 0.3658 -0.3002 0.8810
vn 0.4918 -0.4036 0.7715
vn 0.5987 -0.4913 0.6326
vn 0.6825 -0.5601 0.4696
vn 0.7400 -0.6073 0.2890
vn 0.7693 -0.6314 0.0975
vn 0.7693 -0.6314 -0.0975
vn 0.7400 -0.6073 -0.2890
vn 0.6825 -0.5601 -0.4696
vn 0.5987 -0.4913 -0.6326
vn 0.4918 -0.4036 -0.7715
vn 0.3658 -0.3002 -0.8810
vn 0.2254 -0.1850 -0.9565
vn 0.0761 -0.0625 -0.9951
vn -0.0761 0.0625 -0.9951
vn -0.2254 0.1850 -0.9565
vn -0.3658 0.3002 -0.8810
vn -0.4918 0.4036 -0.7715
vn -0.5987 0.4913 -0.6326
vn -0.6825 0.5601 -0.4696
vn -0.7400 0.6073 -0.2890
vn -0.7693 0.6314 -0.0975
vn -0.8777 0.4691 0.0975
vn -0.8443 0.4513 0.2890
vn -0.7786 0.4162 0.4696
vn -0.6831 0.3651 0.6326
vn -0.5611 0.2999 0.7715
vn -0.4173 0.2230 0.8810
vn -0.2571 0.1374 0.9565
vn -0.0869 0.0464 0.9951
vn 0.0869 -0.0464 0.9951
vn 0.2571 -0.1374 0.9565
vn 0.4173 -0.2230 0.8810
vn 0.5611 -0.2999 0.7715
vn 0.6831 -0.3651 0.6326
vn 0.7786 -0.4162 0.4696
vn 0.8443 -0.4513 0.2890
vn 0.8777 -0.4691 0.0975
vn 0.8777 -0.4691 -0.0975
vn 0.8443 -0.4513 -0.2890
vn 0.7786 -0.4162 -0.4696
vn 0.6831 -0.3651 -0.6326
vn 0.5611 -0.2999 -0.7715
vn 0.4173 -0.2230 -0.8810
vn 0.2571 -0.1374 -0.9565
vn 0.0869 -0.0464 -0.9951
vn -0.0869 0.0464 -0.9951
vn -0.2571 0.1374 -0.9565
vn -0.4173 0.2230 -0.8810
vn -0.5611 0.2999 -0.7715
vn -0.6831 0.3651 -0.6326
vn -0.7786 0.4162 -0.4696
vn -0.8443 0.4513 -0.2890
vn -0.8777 0.4691 -0.0975
vn -0.9524 0.2889 0.0975
vn -0.9161 0.2779 0.2890
vn -0.8448 0.2563 0.4696
vn -0.7412 0.2248 0.6326
vn -0.6088 0.1847 0.7715
vn -0.4528 0.1374 0.8810
vn -0.2790 0.0846 0.9565
vn -0.0942 0.0286 0.9951
vn 0.0942 -0.0286 0.9951
vn 0.2790 -0.0846 0.9565
vn 0.4528 -0.1374 0.8810
vn 0.6088 -0.1847 0.7715
vn 0.7412 -0.2248 0.6326
vn 0.8448 -0.2563 0.4696
vn 0.9161 -0.2779 0.2890
vn 0.9524 -0.2889 0.0975
vn 0.9524 -0.2889 -0.0976
vn 0.9161 -0.2779 -0.2890
vn 0.8448 -0.2563 -0.4696
vn 0.7412 -0.2248 -0.6326
vn 0.6088 -0.1847 -0.7715
vn 0.4528 -0.1374 -0.8810
vn 0.2790 -0.0846 -0.9565
vn 0.0942 -0.0286 -0.9951
vn -0.0942 0.0286 -0.9951
vn -0.2790 0.0846 -0.9565
vn -0.4528 0.1374 -0.8810
vn -0.6088 0.1847 -0.7715
vn -0.7412 0.2248 -0.6326
vn -0.8448 0.2563 -0.4696
vn -0.9161 0.2779 -0.2890
vn -0.9524 0.2889 -0.0975
vn -0.9904 0.0975 0.0975
vn -0.9527 0.0938 0.2890
vn -0.8786 0.0865 0.4696
vn -0.7708 0.0759 0.6326
vn -0.6332 0.0624 0.7715
vn -0.4709 0.0464 0.8810
vn -0.2902 0.0286 0.9565
vn -0.0980 0.0097 0.9951
vn 0.0980 -0.0097 0.9951
vn 0.2902 -0.0286 0.9565
vn 0.4709 -0.0464 0.8810
vn 0.6332 -0.0624 0.7715
vn 0.7708 -0.0759 0.6326
vn 0.8786 -0.0865 0.4696
vn 0.9527 -0.0938 0.2890
vn 0.9904 -0.0975 0.0975
vn 0.9904 -0.0975 -0.0975
vn 0.9527 -0.0938 -0.2890
vn 0.8786 -0.0865 -0.4696
vn 0.7708 -0.0759 -0.6326
vn 0.6332 -0.0624 -0.7715
vn 0.4709 -0.0464 -0.8810
vn 0.2902 -0.0286 -0.9565
vn 0.0980 -0.0097 -0.9951
vn -0.0980 0.0097 -0.9951
vn -0.2902 0.0286 -0.9565
vn -0.4709 0.0464 -0.8810
vn -0.6332 0.0624 -0.7715
vn -0.7708 0.0759 -0.6326
vn -0.8786 0.0865 -0.4696
vn -0.9527 0.0938 -0.2890
vn -0.9904 0.0975 -0.0975
vt 0.875000 0.500000
vt 0.875000 0.531250
vt 0.875000 0.562500
vt 0.875000 0.593750
vt 0.875000 0.625000
vt 0.875000 0.656250
vt 0.875000 0.687500
vt 0.875000 0.718750
vt 0.875000 0.750000
vt 0.875000 0.781250
vt 0.875000 0.812500
vt 0.875000 0.843750
vt 0.875000 0.875000
vt 0.875000 0.906250
vt 0.875000 0.937500
vt 0.875000 0.968750
vt 0.875000 1.000000
vt 0.875000 0.000000
vt 0.875000 0.031250
vt 0.875000 0.062500
vt 0.875000 0.093750
vt 0.875000 0.125000
vt 0.875000 0.156250
vt 0.875000 0.187500
vt 0.875000 0.218750
vt 0.875000 0.250000
vt 0.875000 0.281250
vt 0.875000 0.312500
vt 0.875000 0.343750
vt 0.875000 0.375000
vt 0.875000 0.406250
vt 0.875000 0.437500
vt 0.875000 0.468750
vt 0.906250 0.500000
vt 0.906250 0.531250
vt 0.906250 0.562500
vt 0.906250 0.593750
vt 0.906250 0.625000
vt 0.906250 0.656250
vt 0.906250 0.687500
vt 0.906250 0.718750
vt 0.906250 0.750000
vt 0.906250 0.781250
vt 0.906250 0.812500
vt 0.906250 0.843750
vt 0.906250 0.875000
vt 0.906250 0.906250
vt 0.906250 0.937500
vt 0.906250 0.968750
vt 0.906250 1.000000
vt 0.906250 0.000000
vt 0.906250 0.031250
vt 0.906250 0.062500
vt 0.906250 0.093750
vt 0.906250 0.125000
vt 0.906250 0.156250
vt 0.906250 0.187500
vt 0.906250 0.218750
vt 0.906250 0.250000
vt 0.906250 0.281250
vt 0.906250 0.312500
vt 0.906250 0.343750
vt 0.906250 0.375000
vt 0.906250 0.406250
vt 0.906250 0.437500
vt 0.906250 0.468750
vt 0.937500 0.500000
vt 0.937500 0.531250
vt 0.937500 0.562500
vt 0.937500 0.593750
vt 0.937500 0.625000
vt 0.937500 0.656250
vt 0.937500 0.687500
vt 0.937500 0.718750
vt 0.937500 0.750000
vt 0.937500 0.781250
vt 0.937500 0.812500
vt 0.937500 0.843750
vt 0.937500 0.875000
vt 0.937500 0.906250
vt 0.937500 0.937500
vt 0.937500 0.968750
vt 0.937500 1.000000
vt 0.937500 0.000000
vt 0.937500 0.031250
vt 0.937500 0.062500
vt 0.937500 0.093750
vt 0.937500 0.125000
vt 0.937500 0.156250
vt 0.937500 0.187500
vt 0.937500 0.218750
vt 0.937500 0.250000
vt 0.937500 0.281250
vt 0.937500 0.312500
vt 0.937500 0.343750
vt 0.937500 0.375000
vt 0.937500 0.406250
vt 0.937500 0.437500
vt 0.937500 0.468750
vt 0.968750 0.500000
vt 0.968750 0.531250
vt 0.968750 0.562500
vt 0.968750 0.593750
vt 0.968750 0.625000
vt 0.968750 0.656250
vt 0.968750 0.687500
vt 0.968750 0.718750
vt 0.968750 0.750000
vt 0.968750 0.781250
vt 0.968750 0.812500
vt 0.968750 0.843750
vt 0.968750 0.875000
vt 0.968750 0.906250
vt 0.968750 0.937500
vt 0.968750 0.968750
vt 0.968750 1.000000
vt 0.968750 0.000000
vt 0.968750 0.031250
vt 0.968750 0.062500
vt 0.968750 0.093750
vt 0.968750 0.125000
vt 0.968750 0.156250
vt 0.968750 0.187500
vt 0.968750 0.218750
vt 0.968750 0.250000
vt 0.968750 0.281250
vt 0.968750 0.312500
vt 0.968750 0.343750
vt 0.968750 0.375000
vt 0.968750 0.406250
vt 0.968750 0.437500
vt 0.968750 0.468750
vt 1.000000 0.500000
vt 1.000000 0.531250
vt 1.000000 0.562500
vt 1.000000 0.593750
vt 1.000000 0.625000
vt 1.000000 0.656250
vt 1.000000 0.687500
vt 1.000000 0.718750
vt 1.000000 0.750000
vt 1.000000 0.781250
vt 1.000000 0.812500
vt 1.000000 0.843750
vt 1.000000 0.875000
vt 1.000000 0.906250
vt 1.000000 0.937500
vt 1.000000 0.968750
vt 1.000000 1.000000
vt 1.000000 0.000000
vt 1.000000 0.031250
vt 1.000000 0.062500
vt 1.000000 0.093750
vt 1.000000 0.125000
vt 1.000000 0.156250
vt 1.000000 0.187500
vt 1.000000 0.218750
vt 1.000000 0.250000
vt 1.000000 0.281250
vt 1.000000 0.312500
vt 1.000000 0.343750
vt 1.000000 0.375000
vt 1.000000 0.406250
vt 1.000000 0.437500
vt 1.000000 0.468750
s 0
f 1/1/1 33/34/1 34/35/1 2/2/1
f 2/2/2 34/35/2 35/36/2 3/3/2
f 3/3/3 35/36/3 36/37/3 4/4/3
f 4/4/4 36/37/4 37/38/4 5/5/4
f 5/5/5 37/38/5 38/39/5 6/6/5
f 6/6/6 38/39/6 39/40/6 7/7/6
f 7/7/7 39/40/7 40/41/7 8/8/7
f 8/8/8 40/41/8 41/42/8 9/9/8
f 9/9/9 41/42/9 42/43/9 10/10/9
f 10/10/10 42/43/10 43/44/10 11/11/10
f 11/11/11 43/44/11 44/45/11 12/12/11
f 12/12/12 44/45/12 45/46/12 13/13/12
f 13/13/13 45/46/13 46/47/13 14/14/13
f 14/14/14 46/47/14 47/48/14 15/15/14
f 15/15/15 47/48/15 48/49/15 16/16/15
f 16/16/16 48/49/16 49/50/16 17/17/16
f 17/18/17 49/51/17 50/52/17 18/19/17
f 18/19/18 50/52/18 51/53/18 19/20/18
f 19/20/19 51/53/19 52/54/19 20/21/19
f 20/21/20 52/54/20 53/55/20 21/22/20
f 21/22/21 53/55/21 54/56/21 22/23/21
f 22/23/22 54/56/22 55/57/22 23/24/22
f 23/24/23 55/57/23 56/58/23 24/25/23
f 24/25/24 56/58/24 57/59/24 25/26/24
f 25/26/25 57/59/25 58/60/25 26/27/25
f 26/27/26 58/60/26 59/61/26 27/28/26
f 27/28/27 59/61/27 60/62/27 28/29/27
f 28/29/28 60/62/28 61/63/28 29/30/28
f 29/30/29 61/63/29 62/64/29 30/31/29
f 30/31/30 62/64/30 63/65/30 31/32/30
f 31/32/31 63/65/31 64/66/31 32/33/31
f 32/33/32 64/66/32 33/34/32 1/1/32
f 33/34/33 65/67/33 66/68/33 34/35/33
f 34/35/34 66/68/34 67/69/34 35/36/34
f 35/36/35 67/69/35 68/70/35 36/37/35
f 36/37/36 68/70/36 69/71/36 37/38/36
f 37/38/37 69/71/37 70/72/37 38/39/37
f 38/39/38 70/72/38 71/73/38 39/40/38
f 39/40/39 71/73/39 72/74/39 40/41/39
f 40/41/40 72/74/40 73/75/40 41/42/40
f 41/42/41 73/75/41 74/76/41 42/43/41
f 42/43/42 74/76/42 75/77/42 43/44/42
f 43/44/43 75/77/43 76/78/43 44/45/43
f 44/45/44 76/78/44 77/79/44 45/46/44
f 45/46/45 77/79/45 78/80/45 46/47/45
f 46/47/46 78/80/46 79/81/46 47/48/46
f 47/48/47 79/81/47 80/82/47 48/49/47
f 48/49/48 80/82/48 81/83/48 49/50/48
f 49/51/49 81/84/49 82/85/49 50/52/49
f 50/52/50 82/85/50 83/86/50 51/53/50
f 51/53/51 83/86/51 84/87/51 52/54/51
f 52/54/52 84/87/52 85/88/52 53/55/52
f 53/55/53 85/88/53 86/89/53 54/56/53
f 54/56/54 86/89/54 87/90/54 55/57/54
f 55/57/55 87/90/55 88/91/55 56/58/55
f 56/58/56 88/91/56 89/92/56 57/59/56
f 57/59/57 89/92/57 90/93/57 58/60/57
f 58/60/58 90/93/58 91/94/58 59/61/58
f 59/61/59 91/94/59 92/95/59 60/62/59
f 60/62/60 92/95/60 93/96/60 61/63/60
f 61/63/61 93/96/61 94/97/61 62/64/61
f 62/64/62 94/97/62 95/98/62 63/65/62
f 63/65/63 95/98/63 96/99/63 64/66/63
f 64/66/64 96/99/64 65/67/64 33/34/64
f 65/67/65 97/100/65 98/101/65 66/68/65
f 66/68/66 98/101/66 99/102/66 67/69/66
f 67/69/67 99/102/67 100/103/67 68/70/67
f 68/70/68 100/103/68 101/104/68 69/71/68
f 69/71/69 101/104/69 102/105/69 70/72/69
f 70/72/70 102/105/70 103/106/70 71/73/70
f 71/73/71 103/106/71 104/107/71 72/74/71
f 72/74/72 104/107/72 105/108/72 73/75/72
f 73/75/73 105/108/73 106/109/73 74/76/73
f 74/76/74 106/109/74 107/110/74 75/77/74
f 75/77/75 107/110/75 108/111/75 76/78/75
f 76/78/76 108/111/76 109/112/76 77/79/76
f 77/79/77 109/112/77 110/113/77 78/80/77
f 78/80/78 110/113/78 111/114/78 79/81/78
f 79/81/79 111/114/79 112/115/79 80/82/79
f 80/82/80 112/115/80 113/116/80 81/83/80
f 81/84/81 113/117/81 114/118/81 82/85/81
f 82/85/82 114/118/82 115/119/82 83/86/82
f 83/86/83 115/119/83 116/120/83 84/87/83
f 84/87/84 116/120/84 117/121/84 85/88/84
f 85/88/85 117/121/85 118/122/85 86/89/85
f 86/89/86 118/122/86 119/123/86 87/90/86
f 87/90/87 119/123/87 120/124/87 88/91/87
f 88/91/88 120/124/88 121/125/88 89/92/88
f 89/92/89 121/125/89 122/126/89 90/93/89
f 90/93/90 122/126/90 123/127/90 91/94/90
f 91/94/91 123/127/91 124/128/91 92/95/91
f 92/95/92 124/128/92 125/129/92 93/96/92
f 93/96/93 125/129/93 126/130/93 94/97/93
f 94/97/94 126/130/94 127/131/94 95/98/94
f 95/98/95 127/131/95 128/132/95 96/99/95
f 96/99/96 128/132/96 97/100/96 65/67/96
f 97/100/97 129/133/97 130/134/97 98/101/97
f 98/101/98 130/134/98 131/135/98 99/102/98
f 99/102/99 131/135/99 132/136/99 100/103/99
f 100/103/100 132/136/100 133/137/100 101/104/100
f 101/104/101 133/137/101 134/138/101 102/105/101
f 102/105/102 134/138/102 135/139/102 103/106/102
f 103/106/103 135/139/103 136/140/103 104/107/103
f 104/107/104 136/140/104 137/141/104 105/108/104
f 105/108/105 137/141/105 138/142/105 106/109/105
f 106/109/106 138/142/106 139/143/106 107/110/106
f 107/110/107 139/143/107 140/144/107 108/111/107
f 108/111/108 140/144/108 141/145/108 109/112/108
f 109/112/109 141/145/109 142/146/109 110/113/109
f 110/113/110 142/146/110 143/147/110 111/114/110
f 111/114/111 143/147/111 144/148/111 112/115/111
f 112/115/112 144/148/112 145/149/112 113/116/112
f 113/117/113 145/150/113 146/151/113 114/118/113
f 114/118/114 146/151/114 147/152/114 115/119/114
f 115/119/115 147/152/115 148/153/115 116/120/115
f 116/120/116 148/153/116 149/154/116 117/121/116
f 117/121/117 149/154/117 150/155/117 118/122/117
f 118/122/118 150/155/118 151/156/118 119/123/118
f 119/123/119 151/156/119 152/157/119 120/124/119
f 120/124/120 152/157/120 153/158/120 121/125/120
f 121/125/121 153/158/121 154/159/121 122/126/121
f 122/126/122 154/159/122 155/160/122 123/127/122
f 123/127/123 155/160/123 156/161/123 124/128/123
f 124/128/124 156/161/124 157/162/124 125/129/124
f 125/129/125 157/162/125 158/163/125 126/130/125
f 126/130/126 158/163/126 159/164/126 127/131/126
f 127/131/127 159/164/127 160/165/127 128/132/127
f 128/132/128 160/165/128 129/133/128 97/100/128
