# Blender 3.4.1
# www.blender.org
o í‰ë©´
v -195.801926 99.839554 -0.000004
v -200.000000 0.000000 0.000000
v -183.394943 198.532532 -0.000010
v -160.163727 292.601044 -0.000015
v -132.863327 378.482422 -0.000020
v -112.995117 452.036377 -0.000022
v -103.373260 522.494080 -0.000024
v -100.000000 600.000000 -0.000026
v -200.000000 0.000000 0.000000
v -180.897385 99.839554 74.930153
v -184.775909 0.000003 76.536697
v -169.434830 198.532532 70.182205
v -147.971985 292.601044 61.291996
v -122.749710 378.482422 50.844578
v -104.393875 452.036377 43.241341
v -95.504440 522.494080 39.559212
v -92.387955 600.000000 38.268322
v -184.775909 0.000003 76.536697
v -138.452866 99.839561 138.452866
v -141.421356 0.000006 141.421356
v -129.679810 198.532532 129.679794
v -113.252861 292.601044 113.252853
v -93.948563 378.482422 93.948547
v -79.899612 452.036377 79.899590
v -73.095932 522.494080 73.095909
v -70.710678 600.000000 70.710648
v -141.421356 0.000006 141.421356
v -74.930153 99.839561 180.897385
v -76.536682 0.000008 184.775909
v -70.182205 198.532532 169.434830
v -61.292004 292.601044 147.971970
v -50.844597 378.482422 122.749695
v -43.241364 452.036377 104.393852
v -39.559235 522.494080 95.504417
v -38.268341 600.000000 92.387924
v -76.536682 0.000008 184.775909
v 0.000009 99.839561 195.801926
v 0.000009 0.000009 200.000000
v 0.000007 198.532532 183.394943
v 0.000004 292.601044 160.163712
v 0.000002 378.482422 132.863312
v 0.000002 452.036377 112.995102
v 0.000003 522.494080 103.373245
v 0.000004 600.000000 99.999969
v 0.000009 0.000009 200.000000
v 74.930168 99.839561 180.897385
v 76.536705 0.000008 184.775909
v 70.182220 198.532532 169.434830
v 61.292019 292.601044 147.971970
v 50.844604 378.482422 122.749695
v 43.241364 452.036377 104.393852
v 39.559242 522.494080 95.504417
v 38.268353 600.000000 92.387924
v 76.536705 0.000008 184.775909
v 138.452866 99.839561 138.452866
v 141.421356 0.000006 141.421356
v 129.679810 198.532532 129.679794
v 113.252861 292.601044 113.252853
v 93.948563 378.482422 93.948547
v 79.899612 452.036377 79.899590
v 73.095932 522.494080 73.095909
v 70.710678 600.000000 70.710648
v 141.421356 0.000006 141.421356
v 180.897400 99.839554 74.930122
v 184.775925 0.000003 76.536652
v 169.434845 198.532532 70.182175
v 147.972000 292.601044 61.291965
v 122.749718 378.482422 50.844566
v 104.393890 452.036377 43.241329
v 95.504448 522.494080 39.559196
v 92.387962 600.000000 38.268303
v 184.775925 0.000003 76.536652
v 195.801926 99.839554 -0.000022
v 200.000000 -0.000000 -0.000017
v 183.394943 198.532532 -0.000024
v 160.163727 292.601044 -0.000024
v 132.863327 378.482422 -0.000025
v 112.995117 452.036377 -0.000027
v 103.373260 522.494080 -0.000031
v 100.000000 600.000000 -0.000035
v 200.000000 -0.000000 -0.000017
v 180.897385 99.839554 -74.930161
v 184.775909 -0.000003 -76.536682
v 169.434830 198.532532 -70.182220
v 147.971985 292.601044 -61.292019
v 122.749710 378.482422 -50.844604
v 104.393875 452.036377 -43.241371
v 95.504440 522.494080 -39.559258
v 92.387955 600.000000 -38.268368
v 184.775909 -0.000003 -76.536682
v 138.452850 99.839546 -138.452896
v 141.421326 -0.000006 -141.421371
v 129.679779 198.532532 -129.679840
v 113.252838 292.601044 -113.252884
v 93.948547 378.482422 -93.948593
v 79.899605 452.036377 -79.899643
v 73.095917 522.494080 -73.095970
v 70.710663 600.000000 -70.710716
v 141.421326 -0.000006 -141.421371
v 74.930099 99.839546 -180.897430
v 76.536629 -0.000008 -184.775940
v 70.182152 198.532532 -169.434875
v 61.291958 292.601044 -147.972015
v 50.844559 378.482422 -122.749748
v 43.241329 452.036377 -104.393913
v 39.559204 522.494080 -95.504471
v 38.268314 600.000000 -92.388000
v 76.536629 -0.000008 -184.775940
v -0.000002 99.839546 -195.801926
v -0.000002 -0.000009 -200.000000
v -0.000001 198.532532 -183.394943
v 0.000001 292.601044 -160.163742
v 0.000002 378.482422 -132.863342
v 0.000001 452.036377 -112.995140
v -0.000000 522.494080 -103.373276
v -0.000001 600.000000 -100.000031
v -0.000002 -0.000009 -200.000000
v -74.930183 99.839546 -180.897369
v -76.536720 -0.000008 -184.775879
v -70.182236 198.532532 -169.434814
v -61.292034 292.601044 -147.971985
v -50.844612 378.482422 -122.749718
v -43.241379 452.036377 -104.393883
v -39.559254 522.494080 -95.504448
v -38.268360 600.000000 -92.387970
v -76.536720 -0.000008 -184.775879
v -138.452911 99.839546 -138.452820
v -141.421402 -0.000006 -141.421310
v -129.679855 198.532532 -129.679779
v -113.252899 292.601044 -113.252831
v -93.948593 378.482422 -93.948547
v -79.899643 452.036377 -79.899605
v -73.095955 522.494080 -73.095932
v -70.710701 600.000000 -70.710686
v -141.421402 -0.000006 -141.421310
v -180.897385 99.839554 -74.930161
v -184.775909 -0.000003 -76.536682
v -169.434845 198.532532 -70.182220
v -147.971985 292.601044 -61.292019
v -122.749718 378.482422 -50.844612
v -104.393883 452.036377 -43.241383
v -95.504448 522.494080 -39.559258
v -92.387955 600.000000 -38.268368
v -184.775909 -0.000003 -76.536682
vn 0.9532 -0.2354 -0.1896
vn 0.8081 -0.2354 -0.5400
vn 0.5400 -0.2354 -0.8081
vn 0.1896 -0.2354 -0.9532
vn -0.1896 -0.2354 -0.9532
vn -0.5400 -0.2354 -0.8081
vn -0.8081 -0.2354 -0.5400
vn -0.9532 -0.2354 -0.1896
vn -0.9532 -0.2354 0.1896
vn -0.8081 -0.2354 0.5400
vn -0.5400 -0.2354 0.8081
vn -0.1896 -0.2354 0.9532
vn 0.1896 -0.2354 0.9532
vn 0.5400 -0.2354 0.8081
vn 0.8081 -0.2354 0.5400
vn 0.9532 -0.2354 0.1896
vn 0.9734 -0.1224 -0.1936
vn 0.8252 -0.1224 -0.5514
vn 0.5514 -0.1224 -0.8252
vn 0.1936 -0.1224 -0.9734
vn -0.1936 -0.1224 -0.9734
vn -0.5514 -0.1224 -0.8252
vn -0.8252 -0.1224 -0.5514
vn -0.9734 -0.1224 -0.1936
vn -0.9734 -0.1224 0.1936
vn -0.8252 -0.1224 0.5514
vn -0.5514 -0.1224 0.8252
vn -0.1936 -0.1224 0.9734
vn 0.1936 -0.1224 0.9734
vn 0.5514 -0.1224 0.8252
vn 0.8252 -0.1224 0.5514
vn 0.9734 -0.1224 0.1936
vn 0.9800 -0.0412 -0.1949
vn 0.8308 -0.0412 -0.5551
vn 0.5551 -0.0412 -0.8308
vn 0.1949 -0.0412 -0.9800
vn -0.1949 -0.0412 -0.9800
vn -0.5551 -0.0412 -0.8308
vn -0.8308 -0.0412 -0.5551
vn -0.9800 -0.0412 -0.1949
vn -0.9800 -0.0412 0.1949
vn -0.8308 -0.0412 0.5551
vn -0.5551 -0.0412 0.8308
vn -0.1949 -0.0412 0.9800
vn 0.1949 -0.0412 0.9800
vn 0.5551 -0.0412 0.8308
vn 0.8308 -0.0412 0.5551
vn 0.9800 -0.0412 0.1949
vn 0.9363 -0.2976 -0.1862
vn 0.7938 -0.2976 -0.5304
vn 0.5304 -0.2976 -0.7938
vn 0.1862 -0.2976 -0.9363
vn -0.1862 -0.2976 -0.9363
vn -0.5304 -0.2976 -0.7938
vn -0.7938 -0.2976 -0.5304
vn -0.9363 -0.2976 -0.1862
vn -0.9363 -0.2976 0.1862
vn -0.7938 -0.2976 0.5304
vn -0.5304 -0.2976 0.7938
vn -0.1862 -0.2976 0.9363
vn 0.1862 -0.2976 0.9363
vn 0.5304 -0.2976 0.7938
vn 0.7938 -0.2976 0.5304
vn 0.9363 -0.2976 0.1862
vn 0.9481 -0.2561 -0.1886
vn 0.8037 -0.2561 -0.5370
vn 0.5370 -0.2561 -0.8037
vn 0.1886 -0.2561 -0.9481
vn -0.1886 -0.2561 -0.9481
vn -0.5370 -0.2561 -0.8037
vn -0.8037 -0.2561 -0.5370
vn -0.9481 -0.2561 -0.1886
vn -0.9481 -0.2561 0.1886
vn -0.8037 -0.2561 0.5370
vn -0.5370 -0.2561 0.8037
vn -0.1886 -0.2561 0.9481
vn 0.1886 -0.2561 0.9481
vn 0.5370 -0.2561 0.8037
vn 0.8037 -0.2561 0.5370
vn 0.9481 -0.2561 0.1886
vn 0.9721 -0.1328 -0.1934
vn 0.8241 -0.1328 -0.5507
vn 0.5507 -0.1328 -0.8241
vn 0.1934 -0.1328 -0.9721
vn -0.1934 -0.1328 -0.9721
vn -0.5507 -0.1328 -0.8241
vn -0.8241 -0.1328 -0.5507
vn -0.9721 -0.1328 -0.1934
vn -0.9721 -0.1328 0.1934
vn -0.8241 -0.1328 0.5507
vn -0.5507 -0.1328 0.8241
vn -0.1934 -0.1328 0.9721
vn 0.1934 -0.1328 0.9721
vn 0.5507 -0.1328 0.8241
vn 0.8241 -0.1328 0.5507
vn 0.9721 -0.1328 0.1934
vn 0.9799 -0.0426 -0.1949
vn 0.8307 -0.0426 -0.5551
vn 0.5551 -0.0426 -0.8307
vn 0.1949 -0.0426 -0.9799
vn -0.1949 -0.0426 -0.9799
vn -0.5551 -0.0426 -0.8307
vn -0.8307 -0.0426 -0.5551
vn -0.9799 -0.0426 -0.1949
vn -0.9799 -0.0426 0.1949
vn -0.8307 -0.0426 0.5551
vn -0.5551 -0.0426 0.8307
vn -0.1949 -0.0426 0.9799
vn 0.1949 -0.0426 0.9799
vn 0.5551 -0.0426 0.8307
vn 0.8307 -0.0426 0.5551
vn 0.9799 -0.0426 0.1949
vn -0.0000 1.0000 -0.0000
vt 0.000000 4.991978
vt 1.000000 4.991978
vt 0.000000 0.000000
vt 1.000000 0.000000
vt 0.000000 9.926626
vt 1.000000 9.926626
vt 0.000000 14.630052
vt 1.000000 14.630052
vt 0.000000 18.924122
vt 1.000000 18.924122
vt 0.000000 22.601818
vt 1.000000 22.601818
vt 0.000000 26.124704
vt 1.000000 26.124704
vt 0.000000 30.000000
vt 1.000000 30.000000
vt 0.000000 0.000000
vt 1.000000 0.000000
vt 0.062500 4.991978
vt 0.062500 0.000000
vt 0.062500 9.926626
vt 0.062500 14.630052
vt 0.062500 18.924122
vt 0.062500 22.601818
vt 0.062500 26.124704
vt 0.062500 30.000000
vt 0.062500 0.000000
vt 0.125000 4.991978
vt 0.125000 0.000000
vt 0.125000 9.926626
vt 0.125000 14.630052
vt 0.125000 18.924122
vt 0.125000 22.601818
vt 0.125000 26.124704
vt 0.125000 30.000000
vt 0.125000 0.000000
vt 0.187500 4.991978
vt 0.187500 0.000000
vt 0.187500 9.926626
vt 0.187500 14.630052
vt 0.187500 18.924122
vt 0.187500 22.601818
vt 0.187500 26.124704
vt 0.187500 30.000000
vt 0.187500 0.000000
vt 0.250000 4.991978
vt 0.250000 0.000000
vt 0.250000 9.926626
vt 0.250000 14.630052
vt 0.250000 18.924122
vt 0.250000 22.601818
vt 0.250000 26.124704
vt 0.250000 30.000000
vt 0.250000 0.000000
vt 0.312500 4.991978
vt 0.312500 0.000000
vt 0.312500 9.926626
vt 0.312500 14.630052
vt 0.312500 18.924122
vt 0.312500 22.601818
vt 0.312500 26.124704
vt 0.312500 30.000000
vt 0.312500 0.000000
vt 0.375000 4.991978
vt 0.375000 0.000000
vt 0.375000 9.926626
vt 0.375000 14.630052
vt 0.375000 18.924122
vt 0.375000 22.601818
vt 0.375000 26.124704
vt 0.375000 30.000000
vt 0.375000 0.000000
vt 0.437500 4.991978
vt 0.437500 0.000000
vt 0.437500 9.926626
vt 0.437500 14.630052
vt 0.437500 18.924122
vt 0.437500 22.601818
vt 0.437500 26.124704
vt 0.437500 30.000000
vt 0.437500 0.000000
vt 0.500000 4.991978
vt 0.500000 0.000000
vt 0.500000 9.926626
vt 0.500000 14.630052
vt 0.500000 18.924122
vt 0.500000 22.601818
vt 0.500000 26.124704
vt 0.500000 30.000000
vt 0.500000 0.000000
vt 0.562500 4.991978
vt 0.562500 0.000000
vt 0.562500 9.926626
vt 0.562500 14.630052
vt 0.562500 18.924122
vt 0.562500 22.601818
vt 0.562500 26.124704
vt 0.562500 30.000000
vt 0.562500 0.000000
vt 0.625000 4.991978
vt 0.625000 0.000000
vt 0.625000 9.926626
vt 0.625000 14.630052
vt 0.625000 18.924122
vt 0.625000 22.601818
vt 0.625000 26.124704
vt 0.625000 30.000000
vt 0.625000 0.000000
vt 0.687500 4.991978
vt 0.687500 0.000000
vt 0.687500 9.926626
vt 0.687500 14.630052
vt 0.687500 18.924122
vt 0.687500 22.601818
vt 0.687500 26.124704
vt 0.687500 30.000000
vt 0.687500 0.000000
vt 0.750000 4.991978
vt 0.750000 0.000000
vt 0.750000 9.926626
vt 0.750000 14.630052
vt 0.750000 18.924122
vt 0.750000 22.601818
vt 0.750000 26.124704
vt 0.750000 30.000000
vt 0.750000 0.000000
vt 0.812500 4.991978
vt 0.812500 0.000000
vt 0.812500 9.926626
vt 0.812500 14.630052
vt 0.812500 18.924122
vt 0.812500 22.601818
vt 0.812500 26.124704
vt 0.812500 30.000000
vt 0.812500 0.000000
vt 0.875000 4.991978
vt 0.875000 0.000000
vt 0.875000 9.926626
vt 0.875000 14.630052
vt 0.875000 18.924122
vt 0.875000 22.601818
vt 0.875000 26.124704
vt 0.875000 30.000000
vt 0.875000 0.000000
vt 0.937500 4.991978
vt 0.937500 0.000000
vt 0.937500 9.926626
vt 0.937500 14.630052
vt 0.937500 18.924122
vt 0.937500 22.601818
vt 0.937500 26.124704
vt 0.937500 30.000000
vt 0.937500 0.000000
s 0
f 3/5/1 4/7/1 13/22/1 12/21/1
f 12/21/2 13/22/2 22/31/2 21/30/2
f 21/30/3 22/31/3 31/40/3 30/39/3
f 30/39/4 31/40/4 40/49/4 39/48/4
f 39/48/5 40/49/5 49/58/5 48/57/5
f 48/57/6 49/58/6 58/67/6 57/66/6
f 57/66/7 58/67/7 67/76/7 66/75/7
f 66/75/8 67/76/8 76/85/8 75/84/8
f 75/84/9 76/85/9 85/94/9 84/93/9
f 84/93/10 85/94/10 94/103/10 93/102/10
f 93/102/11 94/103/11 103/112/11 102/111/11
f 102/111/12 103/112/12 112/121/12 111/120/12
f 111/120/13 112/121/13 121/130/13 120/129/13
f 120/129/14 121/130/14 130/139/14 129/138/14
f 129/138/15 130/139/15 139/148/15 138/147/15
f 138/147/16 139/148/16 4/8/16 3/6/16
f 1/1/17 3/5/17 12/21/17 10/19/17
f 10/19/18 12/21/18 21/30/18 19/28/18
f 19/28/19 21/30/19 30/39/19 28/37/19
f 28/37/20 30/39/20 39/48/20 37/46/20
f 37/46/21 39/48/21 48/57/21 46/55/21
f 46/55/22 48/57/22 57/66/22 55/64/22
f 55/64/23 57/66/23 66/75/23 64/73/23
f 64/73/24 66/75/24 75/84/24 73/82/24
f 73/82/25 75/84/25 84/93/25 82/91/25
f 82/91/26 84/93/26 93/102/26 91/100/26
f 91/100/27 93/102/27 102/111/27 100/109/27
f 100/109/28 102/111/28 111/120/28 109/118/28
f 109/118/29 111/120/29 120/129/29 118/127/29
f 118/127/30 120/129/30 129/138/30 127/136/30
f 127/136/31 129/138/31 138/147/31 136/145/31
f 136/145/32 138/147/32 3/6/32 1/2/32
f 2/3/33 1/1/33 10/19/33 11/20/33
f 11/20/34 10/19/34 19/28/34 20/29/34
f 20/29/35 19/28/35 28/37/35 29/38/35
f 29/38/36 28/37/36 37/46/36 38/47/36
f 38/47/37 37/46/37 46/55/37 47/56/37
f 47/56/38 46/55/38 55/64/38 56/65/38
f 56/65/39 55/64/39 64/73/39 65/74/39
f 65/74/40 64/73/40 73/82/40 74/83/40
f 74/83/41 73/82/41 82/91/41 83/92/41
f 83/92/42 82/91/42 91/100/42 92/101/42
f 92/101/43 91/100/43 100/109/43 101/110/43
f 101/110/44 100/109/44 109/118/44 110/119/44
f 110/119/45 109/118/45 118/127/45 119/128/45
f 119/128/46 118/127/46 127/136/46 128/137/46
f 128/137/47 127/136/47 136/145/47 137/146/47
f 137/146/48 136/145/48 1/2/48 2/4/48
f 4/7/49 5/9/49 14/23/49 13/22/49
f 13/22/50 14/23/50 23/32/50 22/31/50
f 22/31/51 23/32/51 32/41/51 31/40/51
f 31/40/52 32/41/52 41/50/52 40/49/52
f 40/49/53 41/50/53 50/59/53 49/58/53
f 49/58/54 50/59/54 59/68/54 58/67/54
f 58/67/55 59/68/55 68/77/55 67/76/55
f 67/76/56 68/77/56 77/86/56 76/85/56
f 76/85/57 77/86/57 86/95/57 85/94/57
f 85/94/58 86/95/58 95/104/58 94/103/58
f 94/103/59 95/104/59 104/113/59 103/112/59
f 103/112/60 104/113/60 113/122/60 112/121/60
f 112/121/61 113/122/61 122/131/61 121/130/61
f 121/130/62 122/131/62 131/140/62 130/139/62
f 130/139/63 131/140/63 140/149/63 139/148/63
f 139/148/64 140/149/64 5/10/64 4/8/64
f 5/9/65 6/11/65 15/24/65 14/23/65
f 14/23/66 15/24/66 24/33/66 23/32/66
f 23/32/67 24/33/67 33/42/67 32/41/67
f 32/41/68 33/42/68 42/51/68 41/50/68
f 41/50/69 42/51/69 51/60/69 50/59/69
f 50/59/70 51/60/70 60/69/70 59/68/70
f 59/68/71 60/69/71 69/78/71 68/77/71
f 68/77/72 69/78/72 78/87/72 77/86/72
f 77/86/73 78/87/73 87/96/73 86/95/73
f 86/95/74 87/96/74 96/105/74 95/104/74
f 95/104/75 96/105/75 105/114/75 104/113/75
f 104/113/76 105/114/76 114/123/76 113/122/76
f 113/122/77 114/123/77 123/132/77 122/131/77
f 122/131/78 123/132/78 132/141/78 131/140/78
f 131/140/79 132/141/79 141/150/79 140/149/79
f 140/149/80 141/150/80 6/12/80 5/10/80
f 6/11/81 7/13/81 16/25/81 15/24/81
f 15/24/82 16/25/82 25/34/82 24/33/82
f 24/33/83 25/34/83 34/43/83 33/42/83
f 33/42/84 34/43/84 43/52/84 42/51/84
f 42/51/85 43/52/85 52/61/85 51/60/85
f 51/60/86 52/61/86 61/70/86 60/69/86
f 60/69/87 61/70/87 70/79/87 69/78/87
f 69/78/88 70/79/88 79/88/88 78/87/88
f 78/87/89 79/88/89 88/97/89 87/96/89
f 87/96/90 88/97/90 97/106/90 96/105/90
f 96/105/91 97/106/91 106/115/91 105/114/91
f 105/114/92 106/115/92 115/124/92 114/123/92
f 114/123/93 115/124/93 124/133/93 123/132/93
f 123/132/94 124/133/94 133/142/94 132/141/94
f 132/141/95 133/142/95 142/151/95 141/150/95
f 141/150/96 142/151/96 7/14/96 6/12/96
f 7/13/97 8/15/97 17/26/97 16/25/97
f 16/25/98 17/26/98 26/35/98 25/34/98
f 25/34/99 26/35/99 35/44/99 34/43/99
f 34/43/100 35/44/100 44/53/100 43/52/100
f 43/52/101 44/53/101 53/62/101 52/61/101
f 52/61/102 53/62/102 62/71/102 61/70/102
f 61/70/103 62/71/103 71/80/103 70/79/103
f 70/79/104 71/80/104 80/89/104 79/88/104
f 79/88/105 80/89/105 89/98/105 88/97/105
f 88/97/106 89/98/106 98/107/106 97/106/106
f 97/106/107 98/107/107 107/116/107 106/115/107
f 106/115/108 107/116/108 116/125/108 115/124/108
f 115/124/109 116/125/109 125/134/109 124/133/109
f 124/133/110 125/134/110 134/143/110 133/142/110
f 133/142/111 134/143/111 143/152/111 142/151/111
f 142/151/112 143/152/112 8/16/112 7/14/112
f 9/17/113 2/3/113 11/20/113 18/27/113
f 18/27/113 11/20/113 20/29/113 27/36/113
f 27/36/113 20/29/113 29/38/113 36/45/113
f 36/45/113 29/38/113 38/47/113 45/54/113
f 45/54/113 38/47/113 47/56/113 54/63/113
f 54/63/113 47/56/113 56/65/113 63/72/113
f 63/72/113 56/65/113 65/74/113 72/81/113
f 72/81/113 65/74/113 74/83/113 81/90/113
f 81/90/113 74/83/113 83/92/113 90/99/113
f 90/99/113 83/92/113 92/101/113 99/108/113
f 99/108/113 92/101/113 101/110/113 108/117/113
f 108/117/113 101/110/113 110/119/113 117/126/113
f 117/126/113 110/119/113 119/128/113 126/135/113
f 126/135/113 119/128/113 128/137/113 135/144/113
f 135/144/113 128/137/113 137/146/113 144/153/113
f 144/153/113 137/146/113 2/4/113 9/18/113
