# Blender 3.4.1
# www.blender.org
o ì›í˜•
v 0.000000 -0.000004 -99.999985
v 19.509029 -0.000004 -98.078506
v 38.268356 -0.000004 -92.387939
v 55.557014 -0.000004 -83.146957
v 70.710670 -0.000003 -70.710670
v 83.146957 -0.000002 -55.557014
v 92.387955 -0.000002 -38.268337
v 98.078529 -0.000001 -19.509024
v 100.000000 0.000000 0.000009
v 98.078529 0.000001 19.509041
v 92.387955 0.000002 38.268356
v 83.146973 0.000002 55.557030
v 70.710686 0.000003 70.710686
v 55.557030 0.000004 83.146973
v 38.268356 0.000004 92.387962
v 19.509029 0.000004 98.078545
v 0.000000 0.000004 100.000015
v -19.509029 0.000004 98.078545
v -38.268356 0.000004 92.387970
v -55.557022 0.000004 83.146980
v -70.710678 0.000003 70.710701
v -83.146973 0.000002 55.557045
v -92.387962 0.000002 38.268372
v -98.078537 0.000001 19.509058
v -100.000000 0.000000 0.000026
v -98.078537 -0.000001 -19.509007
v -92.387962 -0.000002 -38.268322
v -83.146973 -0.000002 -55.556999
v -70.710678 -0.000003 -70.710655
v -55.557022 -0.000004 -83.146942
v -38.268356 -0.000004 -92.387932
v -19.509029 -0.000004 -98.078506
v 3.842926 39.018059 -109.374985
v 22.977123 35.212036 -107.453506
v 41.375980 31.552275 -101.762939
v 58.332451 28.179420 -92.521957
v 73.194931 25.223093 -80.085670
v 85.392258 22.796896 -64.932014
v 94.455688 20.994068 -47.643337
v 100.036926 19.883892 -28.884022
v 101.921471 19.509031 -9.374992
v 100.036926 19.883892 10.134039
v 94.455688 20.994072 28.893356
v 85.392265 22.796900 46.182030
v 73.194954 25.223099 61.335686
v 58.332474 28.179428 73.771980
v 41.375999 31.552284 83.012962
v 22.977123 35.212048 88.703545
v 3.842945 39.018066 90.625015
v -15.291214 42.824093 88.703545
v -33.690090 46.483856 83.012970
v -50.646553 49.856705 73.771988
v -65.509033 52.813038 61.335701
v -77.706375 55.239235 46.182041
v -86.769806 57.042061 28.893372
v -92.351036 58.152237 10.134054
v -94.235573 58.527100 -9.374977
v -92.351036 58.152237 -28.884008
v -86.769806 57.042061 -47.643326
v -77.706375 55.239227 -64.932007
v -65.509033 52.813030 -80.085663
v -50.646553 49.856697 -92.521942
v -33.690090 46.483845 -101.762932
v -15.291214 42.824081 -107.453506
v 15.224075 76.536690 -118.749985
v 33.248081 69.070900 -116.828506
v 50.579445 61.892017 -111.137939
v 66.552086 55.275932 -101.896957
v 80.552231 49.476883 -89.460670
v 92.041862 44.717716 -74.307014
v 100.579422 41.181343 -57.018337
v 105.836838 39.003658 -38.259026
v 107.612045 38.268349 -18.749992
v 105.836838 39.003662 0.759038
v 100.579437 41.181351 19.518353
v 92.041870 44.717720 36.807030
v 80.552246 49.476887 51.960686
v 66.552109 55.275940 64.396965
v 50.579460 61.892029 73.637962
v 33.248100 69.070908 79.328537
v 15.224094 76.536697 81.250015
v -2.799892 84.002472 79.328545
v -20.131245 91.181351 73.637970
v -36.103897 97.797440 64.396980
v -50.104046 103.596497 51.960697
v -61.593685 108.355667 36.807041
v -70.131241 111.892029 19.518366
v -75.388657 114.069733 0.759051
v -77.163849 114.805038 -18.749981
v -75.388657 114.069733 -38.259014
v -70.131241 111.892029 -57.018326
v -61.593685 108.355667 -74.307007
v -50.104046 103.596497 -89.460663
v -36.103897 97.797440 -101.896942
v -20.131264 91.181343 -111.137932
v -2.799911 84.002464 -116.828506
v 33.706055 111.114037 -128.124985
v 49.927235 100.275406 -126.203522
v 65.525047 89.853279 -120.512939
v 79.900047 80.248215 -111.271957
v 92.499847 71.829292 -98.835670
v 102.840240 64.920067 -83.682014
v 110.523842 59.786049 -66.393341
v 115.255394 56.624535 -47.634026
v 116.853035 55.557022 -28.124996
v 115.255394 56.624535 -8.615963
v 110.523849 59.786053 10.143353
v 102.840256 64.920074 27.432030
v 92.499855 71.829300 42.585682
v 79.900063 80.248222 55.021969
v 65.525063 89.853287 64.262955
v 49.927254 100.275414 69.953537
v 33.706074 111.114044 71.875008
v 17.484913 121.952682 69.953537
v 1.887112 132.374817 64.262970
v -12.487888 141.979874 55.021976
v -25.087700 150.398804 42.585693
v -35.428104 157.308029 27.432037
v -43.111706 162.442047 10.143361
v -47.843246 165.603561 -8.615953
v -49.440880 166.671066 -28.124985
v -47.843246 165.603561 -47.634014
v -43.111706 162.442047 -66.393333
v -35.428104 157.308029 -83.682014
v -25.087700 150.398804 -98.835670
v -12.487907 141.979858 -111.271957
v 1.887093 132.374802 -120.512939
v 17.484894 121.952675 -126.203522
v 58.578636 141.421341 -137.500000
v 72.373596 127.626381 -135.578522
v 85.638443 114.361534 -129.887955
v 97.863380 102.136604 -120.646957
v 108.578636 91.421356 -108.210670
v 117.372421 82.627571 -93.057014
v 123.906784 76.093201 -75.768349
v 127.930634 72.069359 -57.009029
v 129.289322 70.710678 -37.499996
v 127.930641 72.069366 -17.990967
v 123.906792 76.093208 0.768350
v 117.372429 82.627571 18.057026
v 108.578644 91.421356 33.210682
v 97.863388 102.136612 45.646969
v 85.638466 114.361542 54.887959
v 72.373619 127.626389 60.578533
v 58.578651 141.421356 62.500008
v 44.783688 155.216324 60.578537
v 31.518841 168.481155 54.887959
v 19.293900 180.706100 45.646969
v 8.578644 191.421356 33.210686
v -0.215149 200.215149 18.057032
v -6.749516 206.749512 0.768356
v -10.773354 210.773346 -17.990959
v -12.132034 212.132034 -37.499992
v -10.773354 210.773346 -57.009018
v -6.749516 206.749512 -75.768341
v -0.215149 200.215149 -93.057014
v 8.578644 191.421356 -108.210670
v 19.293880 180.706100 -120.646957
v 31.518822 168.481155 -129.887939
v 44.783669 155.216309 -135.578522
vn 0.0713 -0.2509 -0.9654
vn 0.0210 -0.2600 -0.9654
vn -0.0301 -0.2591 -0.9654
vn -0.0801 -0.2482 -0.9654
vn 0.2550 -0.2846 -0.9241
vn 0.1946 -0.3289 -0.9241
vn 0.1267 -0.3606 -0.9241
vn 0.0539 -0.3783 -0.9241
vn 0.4280 -0.3088 -0.8494
vn 0.3595 -0.3863 -0.8494
vn 0.2773 -0.4491 -0.8494
vn 0.1843 -0.4945 -0.8494
vn 0.5858 -0.3192 -0.7449
vn 0.5123 -0.4274 -0.7449
vn 0.4191 -0.5191 -0.7449
vn 0.3097 -0.5909 -0.7449
vn 0.7251 -0.3113 -0.6143
vn 0.6504 -0.4467 -0.6143
vn 0.5508 -0.5651 -0.6143
vn 0.4300 -0.6617 -0.6143
vn 0.8423 -0.2801 -0.4605
vn 0.7715 -0.4391 -0.4605
vn 0.6710 -0.5811 -0.4605
vn 0.5447 -0.7009 -0.4605
vn 0.9317 -0.2232 -0.2865
vn 0.8703 -0.4007 -0.2865
vn 0.7754 -0.5628 -0.2865
vn 0.6507 -0.7032 -0.2865
vn 0.9849 -0.1434 -0.0974
vn 0.9380 -0.3328 -0.0974
vn 0.8550 -0.5094 -0.0974
vn 0.7392 -0.6664 -0.0974
vn 0.9939 -0.0515 0.0974
vn 0.9648 -0.2444 0.0974
vn 0.8985 -0.4279 0.0974
vn 0.7978 -0.5950 0.0974
vn 0.9574 0.0371 0.2865
vn 0.9462 -0.1504 0.2865
vn 0.8987 -0.3321 0.2865
vn 0.8166 -0.5010 0.2865
vn 0.8808 0.1104 0.4605
vn 0.8854 -0.0635 0.4605
vn 0.8560 -0.2350 0.4605
vn 0.7937 -0.3975 0.4605
vn 0.7719 0.1638 0.6143
vn 0.7890 0.0101 0.6143
vn 0.7758 -0.1440 0.6143
vn 0.7328 -0.2926 0.6143
vn 0.6368 0.1988 0.7449
vn 0.6634 0.0708 0.7449
vn 0.6645 -0.0600 0.7449
vn 0.6400 -0.1885 0.7449
vn 0.4800 0.2193 0.8494
vn 0.5136 0.1215 0.8494
vn 0.5274 0.0190 0.8494
vn 0.5210 -0.0843 0.8494
vn 0.3056 0.2294 0.9241
vn 0.3445 0.1654 0.9241
vn 0.3702 0.0950 0.9241
vn 0.3816 0.0210 0.9241
vn 0.1189 0.2321 0.9654
vn 0.1619 0.2045 0.9654
vn 0.1987 0.1690 0.9654
vn 0.2278 0.1270 0.9654
vn -0.0739 0.2296 0.9705
vn -0.0277 0.2396 0.9705
vn 0.0196 0.2404 0.9705
vn 0.0661 0.2320 0.9705
vn -0.2653 0.2231 0.9380
vn -0.2167 0.2705 0.9380
vn -0.1598 0.3076 0.9380
vn -0.0967 0.3329 0.9380
vn -0.4477 0.2131 0.8684
vn -0.3975 0.2964 0.8684
vn -0.3321 0.3682 0.8684
vn -0.2538 0.4259 0.8684
vn -0.6134 0.1999 0.7640
vn -0.5626 0.3158 0.7640
vn -0.4902 0.4195 0.7640
vn -0.3990 0.5070 0.7640
vn -0.7556 0.1835 0.6288
vn -0.7053 0.3274 0.6288
vn -0.6278 0.4587 0.6288
vn -0.5263 0.5724 0.6288
vn -0.8683 0.1637 0.4682
vn -0.8197 0.3300 0.4682
vn -0.7396 0.4835 0.4682
vn -0.6310 0.6185 0.4682
vn -0.9471 0.1403 0.2887
vn -0.9015 0.3223 0.2887
vn -0.8213 0.4920 0.2887
vn -0.7095 0.6428 0.2887
vn -0.9888 0.1131 0.0975
vn -0.9477 0.3038 0.0975
vn -0.8703 0.4828 0.0975
vn -0.7593 0.6433 0.0975
vn -0.9918 0.0820 -0.0975
vn -0.9568 0.2739 -0.0975
vn -0.8850 0.4553 -0.0975
vn -0.7791 0.6192 -0.0975
vn -0.9563 0.0472 -0.2887
vn -0.9287 0.2328 -0.2887
vn -0.8654 0.4095 -0.2887
vn -0.7689 0.5705 -0.2887
vn -0.8836 0.0088 -0.4682
vn -0.8649 0.1810 -0.4682
vn -0.8129 0.3463 -0.4682
vn -0.7298 0.4982 -0.4682
vn -0.7769 -0.0326 -0.6288
vn -0.7683 0.1196 -0.6288
vn -0.7302 0.2672 -0.6288
vn -0.6641 0.4045 -0.6288
vn -0.6406 -0.0764 -0.7640
vn -0.6432 0.0500 -0.7640
vn -0.6211 0.1745 -0.7640
vn -0.5751 0.2924 -0.7640
vn -0.4807 -0.1217 -0.8684
vn -0.4952 -0.0256 -0.8684
vn -0.4906 0.0715 -0.8684
vn -0.4673 0.1659 -0.8684
vn -0.3037 -0.1670 -0.9380
vn -0.3305 -0.1045 -0.9380
vn -0.3445 -0.0381 -0.9380
vn -0.3453 0.0299 -0.9380
vn -0.1173 -0.2108 -0.9705
vn -0.1561 -0.1839 -0.9705
vn -0.1890 -0.1499 -0.9705
vn -0.2146 -0.1101 -0.9705
vt 0.000000 10.000000
vt 0.000000 9.807853
vt 0.000000 9.238795
vt 0.000000 8.314696
vt 0.000000 7.071068
vt 0.000000 5.555702
vt 0.000000 3.826835
vt 0.000000 1.950903
vt 0.000000 0.000000
vt 0.000000 -1.950903
vt 0.000000 -3.826835
vt 0.000000 -5.555702
vt 0.000000 -7.071068
vt 0.000000 -8.314696
vt 0.000000 -9.238795
vt 0.000000 -9.807853
vt 0.000000 -10.000000
vt 0.000000 -9.807853
vt 0.000000 -9.238795
vt 0.000000 -8.314696
vt 0.000000 -7.071068
vt 0.000000 -5.555702
vt 0.000000 -3.826835
vt 0.000000 -1.950903
vt 0.000000 0.000000
vt 0.000000 1.950903
vt 0.000000 3.826835
vt 0.000000 5.555702
vt 0.000000 7.071068
vt 0.000000 8.314696
vt 0.000000 9.238795
vt 0.000000 9.807853
vt 0.031250 10.000000
vt 0.031250 9.807853
vt 0.031250 9.238795
vt 0.031250 8.314696
vt 0.031250 7.071068
vt 0.031250 5.555702
vt 0.031250 3.826835
vt 0.031250 1.950903
vt 0.031250 0.000000
vt 0.031250 -1.950903
vt 0.031250 -3.826835
vt 0.031250 -5.555702
vt 0.031250 -7.071068
vt 0.031250 -8.314696
vt 0.031250 -9.238795
vt 0.031250 -9.807853
vt 0.031250 -10.000000
vt 0.031250 -9.807853
vt 0.031250 -9.238795
vt 0.031250 -8.314696
vt 0.031250 -7.071068
vt 0.031250 -5.555702
vt 0.031250 -3.826835
vt 0.031250 -1.950903
vt 0.031250 0.000000
vt 0.031250 1.950903
vt 0.031250 3.826835
vt 0.031250 5.555702
vt 0.031250 7.071068
vt 0.031250 8.314696
vt 0.031250 9.238795
vt 0.031250 9.807853
vt 0.062500 10.000000
vt 0.062500 9.807853
vt 0.062500 9.238795
vt 0.062500 8.314696
vt 0.062500 7.071068
vt 0.062500 5.555702
vt 0.062500 3.826835
vt 0.062500 1.950903
vt 0.062500 0.000000
vt 0.062500 -1.950903
vt 0.062500 -3.826835
vt 0.062500 -5.555702
vt 0.062500 -7.071068
vt 0.062500 -8.314696
vt 0.062500 -9.238795
vt 0.062500 -9.807853
vt 0.062500 -10.000000
vt 0.062500 -9.807853
vt 0.062500 -9.238795
vt 0.062500 -8.314696
vt 0.062500 -7.071068
vt 0.062500 -5.555702
vt 0.062500 -3.826835
vt 0.062500 -1.950903
vt 0.062500 0.000000
vt 0.062500 1.950903
vt 0.062500 3.826835
vt 0.062500 5.555702
vt 0.062500 7.071068
vt 0.062500 8.314696
vt 0.062500 9.238795
vt 0.062500 9.807853
vt 0.093750 10.000000
vt 0.093750 9.807853
vt 0.093750 9.238795
vt 0.093750 8.314696
vt 0.093750 7.071068
vt 0.093750 5.555702
vt 0.093750 3.826835
vt 0.093750 1.950903
vt 0.093750 0.000000
vt 0.093750 -1.950903
vt 0.093750 -3.826835
vt 0.093750 -5.555702
vt 0.093750 -7.071068
vt 0.093750 -8.314696
vt 0.093750 -9.238795
vt 0.093750 -9.807853
vt 0.093750 -10.000000
vt 0.093750 -9.807853
vt 0.093750 -9.238795
vt 0.093750 -8.314696
vt 0.093750 -7.071068
vt 0.093750 -5.555702
vt 0.093750 -3.826835
vt 0.093750 -1.950903
vt 0.093750 0.000000
vt 0.093750 1.950903
vt 0.093750 3.826835
vt 0.093750 5.555702
vt 0.093750 7.071068
vt 0.093750 8.314696
vt 0.093750 9.238795
vt 0.093750 9.807853
vt 0.125000 10.000000
vt 0.125000 9.807853
vt 0.125000 9.238795
vt 0.125000 8.314696
vt 0.125000 7.071068
vt 0.125000 5.555702
vt 0.125000 3.826835
vt 0.125000 1.950903
vt 0.125000 0.000000
vt 0.125000 -1.950903
vt 0.125000 -3.826835
vt 0.125000 -5.555702
vt 0.125000 -7.071068
vt 0.125000 -8.314696
vt 0.125000 -9.238795
vt 0.125000 -9.807853
vt 0.125000 -10.000000
vt 0.125000 -9.807853
vt 0.125000 -9.238795
vt 0.125000 -8.314696
vt 0.125000 -7.071068
vt 0.125000 -5.555702
vt 0.125000 -3.826835
vt 0.125000 -1.950903
vt 0.125000 0.000000
vt 0.125000 1.950903
vt 0.125000 3.826835
vt 0.125000 5.555702
vt 0.125000 7.071068
vt 0.125000 8.314696
vt 0.125000 9.238795
vt 0.125000 9.807853
s 0
f 2/2/1 1/1/1 33/33/1 34/34/1
f 34/34/2 33/33/2 65/65/2 66/66/2
f 66/66/3 65/65/3 97/97/3 98/98/3
f 98/98/4 97/97/4 129/129/4 130/130/4
f 3/3/5 2/2/5 34/34/5 35/35/5
f 35/35/6 34/34/6 66/66/6 67/67/6
f 67/67/7 66/66/7 98/98/7 99/99/7
f 99/99/8 98/98/8 130/130/8 131/131/8
f 4/4/9 3/3/9 35/35/9 36/36/9
f 36/36/10 35/35/10 67/67/10 68/68/10
f 68/68/11 67/67/11 99/99/11 100/100/11
f 100/100/12 99/99/12 131/131/12 132/132/12
f 5/5/13 4/4/13 36/36/13 37/37/13
f 37/37/14 36/36/14 68/68/14 69/69/14
f 69/69/15 68/68/15 100/100/15 101/101/15
f 101/101/16 100/100/16 132/132/16 133/133/16
f 6/6/17 5/5/17 37/37/17 38/38/17
f 38/38/18 37/37/18 69/69/18 70/70/18
f 70/70/19 69/69/19 101/101/19 102/102/19
f 102/102/20 101/101/20 133/133/20 134/134/20
f 7/7/21 6/6/21 38/38/21 39/39/21
f 39/39/22 38/38/22 70/70/22 71/71/22
f 71/71/23 70/70/23 102/102/23 103/103/23
f 103/103/24 102/102/24 134/134/24 135/135/24
f 8/8/25 7/7/25 39/39/25 40/40/25
f 40/40/26 39/39/26 71/71/26 72/72/26
f 72/72/27 71/71/27 103/103/27 104/104/27
f 104/104/28 103/103/28 135/135/28 136/136/28
f 9/9/29 8/8/29 40/40/29 41/41/29
f 41/41/30 40/40/30 72/72/30 73/73/30
f 73/73/31 72/72/31 104/104/31 105/105/31
f 105/105/32 104/104/32 136/136/32 137/137/32
f 10/10/33 9/9/33 41/41/33 42/42/33
f 42/42/34 41/41/34 73/73/34 74/74/34
f 74/74/35 73/73/35 105/105/35 106/106/35
f 106/106/36 105/105/36 137/137/36 138/138/36
f 11/11/37 10/10/37 42/42/37 43/43/37
f 43/43/38 42/42/38 74/74/38 75/75/38
f 75/75/39 74/74/39 106/106/39 107/107/39
f 107/107/40 106/106/40 138/138/40 139/139/40
f 12/12/41 11/11/41 43/43/41 44/44/41
f 44/44/42 43/43/42 75/75/42 76/76/42
f 76/76/43 75/75/43 107/107/43 108/108/43
f 108/108/44 107/107/44 139/139/44 140/140/44
f 13/13/45 12/12/45 44/44/45 45/45/45
f 45/45/46 44/44/46 76/76/46 77/77/46
f 77/77/47 76/76/47 108/108/47 109/109/47
f 109/109/48 108/108/48 140/140/48 141/141/48
f 14/14/49 13/13/49 45/45/49 46/46/49
f 46/46/50 45/45/50 77/77/50 78/78/50
f 78/78/51 77/77/51 109/109/51 110/110/51
f 110/110/52 109/109/52 141/141/52 142/142/52
f 15/15/53 14/14/53 46/46/53 47/47/53
f 47/47/54 46/46/54 78/78/54 79/79/54
f 79/79/55 78/78/55 110/110/55 111/111/55
f 111/111/56 110/110/56 142/142/56 143/143/56
f 16/16/57 15/15/57 47/47/57 48/48/57
f 48/48/58 47/47/58 79/79/58 80/80/58
f 80/80/59 79/79/59 111/111/59 112/112/59
f 112/112/60 111/111/60 143/143/60 144/144/60
f 17/17/61 16/16/61 48/48/61 49/49/61
f 49/49/62 48/48/62 80/80/62 81/81/62
f 81/81/63 80/80/63 112/112/63 113/113/63
f 113/113/64 112/112/64 144/144/64 145/145/64
f 18/18/65 17/17/65 49/49/65 50/50/65
f 50/50/66 49/49/66 81/81/66 82/82/66
f 82/82/67 81/81/67 113/113/67 114/114/67
f 114/114/68 113/113/68 145/145/68 146/146/68
f 19/19/69 18/18/69 50/50/69 51/51/69
f 51/51/70 50/50/70 82/82/70 83/83/70
f 83/83/71 82/82/71 114/114/71 115/115/71
f 115/115/72 114/114/72 146/146/72 147/147/72
f 20/20/73 19/19/73 51/51/73 52/52/73
f 52/52/74 51/51/74 83/83/74 84/84/74
f 84/84/75 83/83/75 115/115/75 116/116/75
f 116/116/76 115/115/76 147/147/76 148/148/76
f 21/21/77 20/20/77 52/52/77 53/53/77
f 53/53/78 52/52/78 84/84/78 85/85/78
f 85/85/79 84/84/79 116/116/79 117/117/79
f 117/117/80 116/116/80 148/148/80 149/149/80
f 22/22/81 21/21/81 53/53/81 54/54/81
f 54/54/82 53/53/82 85/85/82 86/86/82
f 86/86/83 85/85/83 117/117/83 118/118/83
f 118/118/84 117/117/84 149/149/84 150/150/84
f 23/23/85 22/22/85 54/54/85 55/55/85
f 55/55/86 54/54/86 86/86/86 87/87/86
f 87/87/87 86/86/87 118/118/87 119/119/87
f 119/119/88 118/118/88 150/150/88 151/151/88
f 24/24/89 23/23/89 55/55/89 56/56/89
f 56/56/90 55/55/90 87/87/90 88/88/90
f 88/88/91 87/87/91 119/119/91 120/120/91
f 120/120/92 119/119/92 151/151/92 152/152/92
f 25/25/93 24/24/93 56/56/93 57/57/93
f 57/57/94 56/56/94 88/88/94 89/89/94
f 89/89/95 88/88/95 120/120/95 121/121/95
f 121/121/96 120/120/96 152/152/96 153/153/96
f 26/26/97 25/25/97 57/57/97 58/58/97
f 58/58/98 57/57/98 89/89/98 90/90/98
f 90/90/99 89/89/99 121/121/99 122/122/99
f 122/122/100 121/121/100 153/153/100 154/154/100
f 27/27/101 26/26/101 58/58/101 59/59/101
f 59/59/102 58/58/102 90/90/102 91/91/102
f 91/91/103 90/90/103 122/122/103 123/123/103
f 123/123/104 122/122/104 154/154/104 155/155/104
f 28/28/105 27/27/105 59/59/105 60/60/105
f 60/60/106 59/59/106 91/91/106 92/92/106
f 92/92/107 91/91/107 123/123/107 124/124/107
f 124/124/108 123/123/108 155/155/108 156/156/108
f 29/29/109 28/28/109 60/60/109 61/61/109
f 61/61/110 60/60/110 92/92/110 93/93/110
f 93/93/111 92/92/111 124/124/111 125/125/111
f 125/125/112 124/124/112 156/156/112 157/157/112
f 30/30/113 29/29/113 61/61/113 62/62/113
f 62/62/114 61/61/114 93/93/114 94/94/114
f 94/94/115 93/93/115 125/125/115 126/126/115
f 126/126/116 125/125/116 157/157/116 158/158/116
f 31/31/117 30/30/117 62/62/117 63/63/117
f 63/63/118 62/62/118 94/94/118 95/95/118
f 95/95/119 94/94/119 126/126/119 127/127/119
f 127/127/120 126/126/120 158/158/120 159/159/120
f 32/32/121 31/31/121 63/63/121 64/64/121
f 64/64/122 63/63/122 95/95/122 96/96/122
f 96/96/123 95/95/123 127/127/123 128/128/123
f 128/128/124 127/127/124 159/159/124 160/160/124
f 1/1/125 32/32/125 64/64/125 33/33/125
f 33/33/126 64/64/126 96/96/126 65/65/126
f 65/65/127 96/96/127 128/128/127 97/97/127
f 97/97/128 128/128/128 160/160/128 129/129/128
